<svg width="385" height="430" viewBox="0 0 385 430" fill="none" xmlns="http://www.w3.org/2000/svg">
<path d="M191.707 378.5C274.992 378.5 342.507 310.985 342.507 227.7C342.507 144.416 274.992 76.9001 191.707 76.9001C108.423 76.9001 40.9072 144.416 40.9072 227.7C40.9072 310.985 108.423 378.5 191.707 378.5Z" fill="white"/>
<path d="M121.808 116.4C122.708 135 99.1076 136.3 90.7076 145.3C78.1076 158.7 83.5076 163.6 70.2076 177.1C56.4076 191.2 31.1076 183.8 21.1076 169.8C9.80755 154.1 10.0076 132.6 25.3076 119.1C37.3076 108.5 55.7076 104.8 71.2076 107.4C95.1076 111.5 94.4076 104 103.208 102.5C103.008 102.5 121.008 100.5 121.808 116.4Z" fill="#202529"/>
<path d="M95.2072 133.1C95.3072 133.4 95.4072 133.7 95.4072 134C98.8072 134.5 101.707 135.9 104.707 137.6C107.207 139.1 109.807 140.7 112.807 140.1C116.307 139.5 118.807 136.7 121.707 134.9C122.007 134.7 122.207 134.6 122.507 134.5C122.707 134.2 122.907 133.9 123.207 133.7C123.407 133.1 123.607 132.5 123.807 131.9C121.907 131.4 120.507 131.1 119.507 130.8C113.607 128.9 112.307 126.7 114.007 120.7C114.707 118.1 115.707 115.6 115.907 112.9C114.307 112.1 112.307 113.2 111.307 114.8C110.307 116.3 110.007 118.1 109.307 119.8C106.507 126.5 100.807 129.6 94.9072 132.4C94.9072 132.5 95.1072 132.8 95.2072 133.1Z" fill="#EBAEA2"/>
<path d="M154.207 139.9C153.007 139 148.507 138.1 140.607 136C132.907 133.9 127.107 132.6 123.207 131.7C121.507 132.7 120.207 134.2 118.707 135.6C116.607 137.4 114.207 138.4 111.407 138.2C108.207 138 105.407 136.6 102.707 135C100.407 133.6 98.2072 132 95.4072 132.3C95.2072 132.3 95.1072 132.3 94.9072 132.3C94.6072 132.4 94.4072 132.5 94.1072 132.7C94.0072 132.7 93.9072 132.8 93.9072 132.8C93.9072 132.9 93.9072 133 93.9072 133.2C94.7072 135.8 94.9072 138.5 95.2072 141.2C95.5072 143.3 96.2072 145.3 96.6072 147.4C96.9072 146 97.2072 144.7 97.5072 143.6C97.5072 143.6 97.5072 148.2 97.5072 148C99.3072 152.9 100.607 158.1 100.207 163.2C105.207 165.1 111.907 164 116.607 162.1C117.707 161.6 121.207 145.5 122.607 143.1H122.807C128.607 143.5 135.407 144.1 141.207 143.8C142.607 143.7 152.407 147.2 155.707 142.3C155.807 142 156.007 141.2 154.207 139.9Z" fill="#CADCF3"/>
<path d="M111.207 114.7C110.207 116.2 109.907 118 109.207 119.7C106.807 125.5 102.107 128.7 97.0068 131.2C98.0068 131.4 107.007 131 112.207 122.2C112.907 121 113.807 119.8 114.507 118.5C115.107 116.6 115.607 114.8 115.707 112.8C114.207 112 112.207 113.1 111.207 114.7Z" fill="#E09383"/>
<path d="M99.8066 156.3C99.9066 156.9 100.007 157.6 100.107 158.3C100.107 158.2 100.107 158.2 100.107 158.1C100.207 157.7 100.307 157.4 100.507 157C100.307 156.8 100.107 156.5 99.8066 156.3Z" fill="#E09383"/>
<path d="M118.207 150C115.707 152.4 113.107 154.8 110.607 157.2C108.707 159 106.307 162.3 103.407 162.3C101.807 162.3 100.707 161.3 100.207 160C100.207 161 100.207 162.1 100.107 163.1C105.107 165 111.807 163.9 116.507 162C117.307 161.7 119.507 152.6 121.107 147C120.207 148 119.207 149 118.207 150Z" fill="#E09383"/>
<path d="M42.3071 288C39.2071 288.6 35.5071 289.6 32.3071 289.1C22.5071 287.6 23.7071 277.8 27.0071 271.5C30.7071 264.2 28.6071 261.9 20.8071 260.8C16.2071 260.2 12.3071 256.6 11.0071 252.2C9.90706 248.5 10.6071 243.9 13.0071 240.8C15.2071 238 19.0071 237.4 19.9071 233.5C21.3071 228 15.1071 226.9 14.8071 221.7C14.7071 219 15.8071 216.4 17.5071 214.4C20.1071 211.4 24.0071 209.6 28.0071 209.8C30.6071 209.9 33.1071 210.9 35.1071 212.6C37.7071 214.7 37.2071 216.9 39.0071 219.3C39.9071 220.6 41.6071 221.4 43.1071 220.9C44.6071 220.4 45.3071 218.8 46.3071 217.6C48.9071 214.3 53.7071 213.3 57.6071 214.6C61.5071 216 64.6071 219.4 66.1071 223.3C67.6071 227.2 67.7071 231.5 67.2071 235.6C66.8071 238.6 66.0071 241.8 67.1071 244.7C68.6071 248.8 73.5071 251.3 74.1071 255.6C74.9071 260.4 79.4071 263.5 81.1071 268.1C82.9071 273 83.0071 278.5 81.0071 283.2C78.2071 289.7 70.3071 295.1 63.0071 294.5C54.5071 293.7 54.4071 285.5 42.3071 288Z" fill="#78BFB1"/>
<path d="M272.806 313.1C271.006 313.5 272.906 308.8 274.306 303.4C287.906 250.4 356.906 246.8 368.206 247.1C380.406 247.4 319.806 301.3 272.806 313.1Z" fill="#D5F0EB"/>
<path d="M265.707 327L265.307 326.7C277.707 307.4 293.207 290.8 311.307 277.6C324.107 268.2 338.007 260.7 352.507 255.2L352.707 255.7C338.207 261.2 324.407 268.7 311.607 278.1C293.507 291.2 278.107 307.7 265.707 327Z" fill="#F0F4F7"/>
<path d="M280.506 314.9C279.006 314.8 280.706 310.9 283.506 307.5C288.106 301.9 294.306 298.7 300.106 295.3C307.406 291.1 314.706 287.8 322.306 285.6C330.606 283.2 339.106 282.1 347.606 282.5C352.506 282.7 365.606 284.9 370.406 288.2C379.506 294.3 321.006 318.3 280.506 314.9Z" fill="#D5F0EB"/>
<path d="M260.107 330L259.807 329.6C275.207 315.7 292.807 305.4 312.207 298.8C325.907 294.1 340.107 291.4 354.507 290.8V291.3C340.207 292 326.007 294.7 312.407 299.3C293.107 305.8 275.507 316.2 260.107 330Z" fill="#F0F4F7"/>
<path d="M276.406 313C275.606 312.5 277.406 310.8 279.606 309.8C283.306 308.1 287.406 308 291.306 307.9C296.206 307.7 300.906 308 305.606 309C310.606 310.1 315.606 311.9 320.206 314.6C322.806 316.1 329.606 321.1 331.606 324.4C335.206 330.3 298.006 326.6 276.406 313Z" fill="#D5F0EB"/>
<path d="M271.507 143H65.1068C59.8068 143 55.5068 147.3 55.5068 152.6V287.6C56.6068 287.6 57.6069 288.1 58.3069 289.1C61.2069 293.2 63.5068 297.6 65.6068 302.1H271.507C276.807 302.1 281.107 297.8 281.107 292.5V152.5C281.107 147.3 276.807 143 271.507 143Z" fill="#424C55"/>
<path d="M73.5072 293.8H263.107C268.107 293.8 272.207 289.7 272.207 284.7V160.3C272.207 155.3 268.107 151.2 263.107 151.2H73.5072C68.5072 151.2 64.4072 155.3 64.4072 160.3V284.7C64.4072 289.7 68.5072 293.8 73.5072 293.8Z" fill="#CADCF3"/>
<path d="M283.306 304C281.706 302.7 279.706 302 277.606 302H65.6064C67.6064 306.2 69.3064 310.6 71.0064 314.9C71.1064 315 71.2065 315.1 71.2065 315.2L114.706 351.1H114.806V355.6C115.106 355.6 115.306 355.6 115.606 355.7C116.906 356 117.906 357.3 118.106 358.7H332.806C336.906 358.7 340.306 355.3 340.306 351.2L283.306 304Z" fill="white"/>
<path d="M114.606 351.1L114.706 351.2H114.806V355.7C115.106 355.7 115.306 355.7 115.606 355.8C116.906 356.1 117.906 357.4 118.106 358.8H333.406C337.206 358.8 340.306 355.7 340.306 351.9V351.3L340.206 351.2H114.606V351.1Z" fill="#D9E2E7"/>
<path d="M190.407 279.2H185.407V276H187.207V274.2H190.407V279.2Z" fill="#5693E3"/>
<path d="M178.407 279.2H171.407V276H178.407V279.2ZM164.407 279.2H157.407V276H164.407V279.2ZM150.307 279.2H143.307V276H150.307V279.2ZM136.307 279.2H129.307V276H136.307V279.2ZM122.307 279.2H115.307V276H122.307V279.2ZM108.307 279.2H101.307V276H108.307V279.2ZM94.207 279.2H87.207V276H94.207V279.2Z" fill="#5693E3"/>
<path d="M80.2066 279.2H75.3066V274.2H78.4066V276H80.2066V279.2Z" fill="#5693E3"/>
<path d="M78.407 267.5H75.207V260.8H78.407V267.5ZM78.407 254.2H75.207V247.5H78.407V254.2ZM78.407 240.9H75.207V234.2H78.407V240.9ZM78.407 227.6H75.207V220.9H78.407V227.6Z" fill="#5693E3"/>
<path d="M78.4066 214.2H75.3066V209.3H80.2066V212.4H78.4066V214.2Z" fill="#5693E3"/>
<path d="M178.407 212.4H171.407V209.3H178.407V212.4ZM164.407 212.4H157.407V209.3H164.407V212.4ZM150.307 212.4H143.307V209.3H150.307V212.4ZM136.307 212.4H129.307V209.3H136.307V212.4ZM122.307 212.4H115.307V209.3H122.307V212.4ZM108.307 212.4H101.307V209.3H108.307V212.4ZM94.207 212.4H87.207V209.3H94.207V212.4Z" fill="#5693E3"/>
<path d="M190.407 214.2H187.207V212.4H185.407V209.3H190.407V214.2Z" fill="#5693E3"/>
<path d="M190.407 267.5H187.207V260.8H190.407V267.5ZM190.407 254.2H187.207V247.5H190.407V254.2ZM190.407 240.9H187.207V234.2H190.407V240.9ZM190.407 227.6H187.207V220.9H190.407V227.6Z" fill="#5693E3"/>
<path d="M135.706 162.5H83.8065C79.0065 162.5 75.1064 166.4 75.1064 171.2V190.7C75.1064 195.5 79.0065 199.4 83.8065 199.4H135.706C140.506 199.4 144.406 195.5 144.406 190.7V171.2C144.406 166.4 140.506 162.5 135.706 162.5Z" fill="white"/>
<path d="M182.107 162.4H165.907C161.107 162.4 157.207 166.3 157.207 171.1V173.3C157.207 178.1 161.107 182 165.907 182H182.107C186.907 182 190.807 178.1 190.807 173.3V171.1C190.807 166.3 186.907 162.4 182.107 162.4Z" fill="white"/>
<path d="M252.606 162.5H212.806C208.006 162.5 204.106 166.4 204.106 171.2V270.6C204.106 275.4 208.006 279.3 212.806 279.3H252.606C257.406 279.3 261.306 275.4 261.306 270.6V171.2C261.306 166.4 257.406 162.5 252.606 162.5Z" fill="white"/>
<path d="M104.606 207.9C100.006 198.5 96.5064 188.8 93.0064 179C92.7064 179 92.4064 179 92.0064 179C90.6064 178.8 89.2064 179.6 88.0064 180.1C87.6064 180.3 87.1064 180.4 86.6064 180.5C88.3064 184 89.9065 187.6 91.8065 191.1C93.7065 194.7 95.7065 198.1 97.7065 201.6C98.4065 203 99.4064 204.2 100.106 205.6C100.906 206.8 101.606 208.2 102.606 209.4C102.606 209.4 102.606 209.4 102.706 209.4C102.706 209.4 102.806 209.4 102.906 209.3C103.206 209.1 103.506 208.8 103.906 208.6C104.206 208.4 104.706 208.1 104.606 207.9Z" fill="#EBAEA2"/>
<path d="M93.6064 180.7C93.4064 180.1 93.2064 179.6 93.0064 179C92.7064 179 92.4064 179 92.0064 179C90.6064 178.8 89.2064 179.6 88.0064 180.1C87.6064 180.3 87.1064 180.4 86.6064 180.5C87.4064 182.1 88.1064 183.7 88.9064 185.3C91.2064 184.5 93.1064 183.1 93.6064 180.7Z" fill="#E09383"/>
<path opacity="0.22" d="M90.7072 143C90.6072 143.2 88.2072 143.3 85.2072 143.3C86.2072 150.4 84.6072 165.2 85.2072 172.3C85.6072 173.3 87.7072 166.7 88.6072 167.3C90.5072 163.3 89.9072 158.6 90.4072 154.3C90.7072 150.5 89.8072 146.6 90.7072 143Z" fill="#202529"/>
<path d="M87.2069 181.6C87.2069 181.7 87.3069 181.7 87.2069 181.6C91.2069 182.7 93.1069 180.3 93.3069 179.9C92.7069 178.4 92.2069 176.8 91.6069 175.3C91.5069 174.9 91.3069 174.5 91.3069 174.1C91.3069 173.8 91.3069 173.4 91.4069 173.1C92.2069 168.2 98.0069 142.3 98.0069 140.2C98.2069 138.2 97.7069 139.9 97.7069 137.8C97.7069 137.5 97.7069 137.1 97.6069 136.8C97.5069 135.4 97.2069 133.7 96.6069 132.7C96.4069 132.4 96.0069 132.1 96.1069 132.1C95.8069 132 95.5069 131.9 95.3069 131.9C94.8069 132.1 94.4069 132.3 93.9069 132.6C88.1069 135.3 88.1069 147.8 86.9069 155.5C86.2069 159.8 85.5069 164.1 84.9069 168.4C84.3069 172.3 84.3069 175.8 86.0069 179.4C86.5069 180.1 86.8069 180.9 87.2069 181.6Z" fill="#CADCF3"/>
<path d="M110.407 210.2C110.507 210.2 110.807 210.3 111.007 210.3C111.207 210.3 111.507 210.1 111.207 210C110.407 209.4 109.707 208.8 108.907 208C108.407 207.6 108.107 207.5 107.707 207.4C107.007 207.2 106.207 207.5 105.307 207.5C105.007 207.6 104.207 207.6 104.007 207.2C103.707 207 103.307 205.7 103.207 206.3C103.107 206.6 102.607 206.5 102.207 206.5C101.007 207.1 101.907 209 103.007 209.7C104.007 210.4 104.807 209.8 105.907 210C106.007 210 106.207 210.1 106.307 210.1C106.607 210.3 106.807 210.7 106.907 211C107.007 211.3 107.207 211.7 107.707 211.6C108.007 211.7 107.407 210.2 107.407 210C107.707 210.1 107.907 210.4 108.007 210.6C108.407 211 108.607 211.2 109.007 211.6C109.107 211.6 109.307 211.8 109.407 211.7C109.507 211.7 109.707 211.5 109.607 211.3C109.707 211.3 109.707 211.3 109.907 211.4C110.107 211.5 110.207 211.3 110.107 211.1C109.907 210.6 109.607 209.8 109.307 209.4C109.607 209.8 110.107 210.2 110.407 210.2Z" fill="#EBAEA2"/>
<path d="M151.307 145C151.507 144.5 151.807 144.1 152.107 143.6C151.607 141.7 148.907 140.3 147.107 140.5C146.707 140.5 146.307 140.5 146.007 140.4C141.107 142.7 136.107 144.8 131.007 146.6C128.307 147.6 118.107 151.1 115.707 151.8C114.407 152.2 112.907 152.1 111.807 152.6C111.407 152.8 111.107 152.9 110.707 153.4C110.107 154.3 109.407 155 108.807 155.7C108.507 155.8 108.907 156 109.007 155.9C109.107 155.8 109.407 155.7 109.507 155.7C109.807 155.6 110.207 155.1 110.407 154.9C110.107 155.3 110.007 156.2 109.807 156.7C109.707 156.9 109.907 157 110.007 156.9C110.107 156.8 110.107 156.8 110.307 156.8C110.207 157 110.507 157.2 110.607 157.2C110.807 157.3 110.907 157.1 111.007 157C111.307 156.6 111.507 156.3 111.807 155.9C111.907 155.7 112.007 155.3 112.307 155.2C112.407 155.3 112.007 156.9 112.307 156.8C112.807 156.8 112.907 156.4 113.007 156.1C113.007 155.8 113.207 155.4 113.407 155.1C113.507 155 113.707 155 113.807 154.9C114.907 154.5 115.707 154.9 116.607 154.1C116.707 154 116.907 153.8 117.007 153.7C118.207 153.5 119.407 153.3 120.507 153.1C122.007 152.8 123.607 152.6 125.107 152.3C129.107 151.6 132.907 150.7 136.907 149.8C140.307 149.1 143.707 148.2 147.007 147.1C147.707 146.9 149.307 146.4 151.007 145.7C151.207 145.4 151.207 145.2 151.307 145Z" fill="#EBAEA2"/>
<path d="M147.507 140.3C147.307 140.3 147.207 140.3 147.007 140.3C146.707 140.3 146.507 140.3 146.207 140.3C145.807 140.5 145.507 140.6 145.107 140.8L145.207 140.9C145.507 140.9 145.807 140.9 146.107 141C146.907 141.2 147.707 141.8 148.107 142.6C148.807 143.7 148.807 145 148.507 146.2C148.507 146.3 148.507 146.4 148.507 146.5C149.207 146.3 150.107 146 151.107 145.6C151.307 145.1 151.507 144.6 151.907 144.2C152.007 144 152.207 143.8 152.307 143.6C153.407 141.3 149.607 140.3 147.507 140.3Z" fill="#E09383"/>
<path d="M155.507 141.3C155.407 141.1 155.307 140.9 155.107 140.8C155.107 140.7 155.007 140.7 154.907 140.7C152.507 138.5 149.807 139.3 147.007 139.9C146.107 140.3 145.207 140.8 144.307 141.2L144.407 141.3C145.907 140.9 147.507 140.9 148.907 141.9C150.207 142.8 150.907 144.4 150.407 145.8C153.307 144.8 156.207 143.3 155.507 141.3Z" fill="#CADCF3"/>
<path d="M117.807 105.2C114.307 103.5 112.107 102.1 110.607 105.3C110.607 105.3 109.107 108.2 108.807 109.2C108.407 110.7 109.607 110.9 109.307 112C108.007 116.5 114.307 121.1 116.607 120.2C118.407 119.6 120.007 115.1 120.707 113.8C121.107 112.9 122.107 110.7 122.107 110.7C123.607 107.5 120.907 106.8 117.807 105.2Z" fill="#EBAEA2"/>
<path d="M121.808 111.5C122.008 111.1 122.108 110.7 122.108 110.7C123.608 107.5 120.908 106.8 117.708 105.1C114.208 103.4 112.008 102 110.508 105.2C110.508 105.2 109.408 107.1 109.008 108.4C113.608 106.7 120.908 112.9 121.808 111.5Z" fill="#E09383"/>
<path d="M125.708 104C123.908 103.6 121.408 103.4 118.908 103.7C118.508 102.7 117.608 102 116.508 101.5C114.008 100.3 111.008 101.7 109.808 104.2C109.508 105 109.108 106.7 109.308 107.7C109.308 107.7 120.308 104.3 122.408 109.8C122.808 110.6 128.208 111.9 129.208 109.4C130.508 107 128.308 104.8 125.708 104Z" fill="#D3654E"/>
<path d="M109.408 108.4C110.408 109.2 110.508 110.8 110.208 111.5C109.708 112.2 108.808 112.3 108.108 112.1C107.308 111.8 106.808 110.3 107.108 109.4C107.408 108 108.408 107.7 109.408 108.4Z" fill="#EBAEA2"/>
<path d="M172.607 235.6C174.807 236.7 176.207 239.3 176.207 241.8C176.207 245 174.107 247.9 171.607 249.8C169.807 251.1 168.007 252.4 165.907 253.2C165.107 253.5 164.307 253.3 163.507 253.6C160.407 254.9 161.107 247.9 162.007 245.8C163.107 242.8 164.107 239.8 165.907 237.1C168.907 232.5 175.807 236.4 179.507 237.5C183.207 238.6 187.207 238.6 191.107 238.6C214.307 238.3 237.407 235.8 260.407 232.5C264.007 232 268.007 231.5 271.207 233.3C272.707 234.2 274.007 235.5 275.007 236.9C278.707 242.1 279.807 248.7 280.907 255C281.507 258.4 286.907 259.6 287.407 263C282.507 263.3 270.307 254 267.507 250C263.307 243.8 264.407 244.1 265.207 236.7C265.507 234.5 266.407 232 268.507 231.7C267.807 231.4 267.107 232.6 267.607 233.1C268.107 233.6 269.307 232.8 268.907 232.1" fill="#146EC7"/>
<g opacity="0.89">
<path opacity="0.89" d="M204.592 367.163C211.731 368.655 219.072 369.72 226.312 370.359C233.049 370.892 239.987 371.212 246.423 373.343C249.741 374.408 252.859 376.007 256.076 377.285C264.724 380.589 278.4 383.039 287.148 378.564C298.611 372.81 291.547 363.025 283 361C262.285 355.885 240.591 359.704 220.077 358.319C215.552 357.999 209.921 357.466 205.597 359.384C201.173 361.196 197.251 365.564 204.592 367.163Z" fill="#C4DEF5"/>
</g>
<path fill-rule="evenodd" clip-rule="evenodd" d="M262.107 310.5H267.707C268.607 310.5 269.607 310.8 270.107 311.2L273.307 313.8C273.707 314.2 273.407 314.4 272.507 314.4H266.907C266.107 314.4 265.007 314.1 264.607 313.7L261.407 311.1C261.007 310.8 261.307 310.5 262.107 310.5Z" fill="#758A9B"/>
<path fill-rule="evenodd" clip-rule="evenodd" d="M267.707 315.1H273.307C274.207 315.1 275.207 315.4 275.607 315.8L278.707 318.4C279.107 318.8 278.807 319 277.907 319H272.407C271.607 319 270.507 318.7 270.107 318.3L267.007 315.7C266.607 315.4 266.907 315.1 267.707 315.1Z" fill="#758A9B"/>
<path fill-rule="evenodd" clip-rule="evenodd" d="M273.207 319.7H278.707C279.507 319.7 280.607 320 281.007 320.4L284.107 323C284.507 323.4 284.207 323.6 283.307 323.6H277.807C277.007 323.6 275.907 323.3 275.507 322.9L272.407 320.3C272.107 319.9 272.407 319.7 273.207 319.7Z" fill="#758A9B"/>
<path fill-rule="evenodd" clip-rule="evenodd" d="M278.607 324.2H284.107C284.907 324.2 286.007 324.5 286.407 324.9L289.407 327.5C289.807 327.9 289.507 328.1 288.607 328.1H283.107C282.307 328.1 281.207 327.8 280.807 327.5L277.807 324.9C277.507 324.5 277.807 324.2 278.607 324.2Z" fill="#758A9B"/>
<path fill-rule="evenodd" clip-rule="evenodd" d="M286.108 331.9C286.208 331.9 286.208 332 286.308 332H294.808L294.708 331.9L291.808 329.4C291.408 329 290.408 328.8 289.508 328.8H284.008C283.208 328.8 282.808 329.1 283.208 329.4L286.108 331.9Z" fill="#758A9B"/>
<path fill-rule="evenodd" clip-rule="evenodd" d="M241.608 310.4L256.808 310.5C257.708 310.5 258.808 310.8 259.308 311.2L262.408 313.7C262.908 314.1 262.508 314.4 261.608 314.4L246.408 314.3C245.508 314.3 244.408 314 243.908 313.6L240.808 311.1C240.308 310.7 240.708 310.4 241.608 310.4Z" fill="#758A9B"/>
<path fill-rule="evenodd" clip-rule="evenodd" d="M254.207 315H262.407C263.307 315 264.407 315.3 264.907 315.7L267.907 318.2C268.407 318.6 268.007 318.9 267.107 318.9H258.907C258.007 318.9 256.907 318.6 256.407 318.2L253.407 315.7C252.907 315.3 253.307 315 254.207 315Z" fill="#758A9B"/>
<path fill-rule="evenodd" clip-rule="evenodd" d="M251.607 319.6L268.007 319.7C268.907 319.7 270.007 320 270.507 320.4L273.507 322.9C274.007 323.3 273.607 323.6 272.707 323.6L256.407 323.5C255.507 323.5 254.407 323.2 254.007 322.8L251.007 320.3C250.307 319.9 250.707 319.6 251.607 319.6Z" fill="#758A9B"/>
<path fill-rule="evenodd" clip-rule="evenodd" d="M267.907 324.1H273.407C274.207 324.1 275.307 324.4 275.707 324.7L278.707 327.3C279.107 327.7 278.807 327.9 277.907 327.9H272.407C271.607 327.9 270.507 327.6 270.107 327.3L267.107 324.7C266.807 324.4 267.107 324.1 267.907 324.1Z" fill="#758A9B"/>
<path fill-rule="evenodd" clip-rule="evenodd" d="M275.508 331.9C275.608 332 275.708 332 275.808 332.1H284.208C284.208 332.1 284.108 332 284.108 331.9L281.108 329.3C280.708 328.9 279.708 328.7 278.808 328.7H273.308C272.508 328.7 272.108 329 272.508 329.3L275.508 331.9Z" fill="#758A9B"/>
<path fill-rule="evenodd" clip-rule="evenodd" d="M265.707 307.6H99.2073C99.1073 307.7 99.1073 307.8 99.3073 307.9L101.907 309.9C102.307 310.2 103.307 310.5 103.907 310.5L261.107 309.9H262.007H267.207C267.907 309.9 268.207 309.6 267.807 309.3L265.707 307.6Z" fill="#758A9B"/>
<path fill-rule="evenodd" clip-rule="evenodd" d="M230.707 310.4H236.107C236.907 310.4 238.007 310.7 238.407 311.1L241.707 313.7C242.107 314.1 241.807 314.3 241.007 314.3H235.607C234.807 314.3 233.807 314 233.307 313.7L230.007 311.1C229.607 310.6 229.907 310.4 230.707 310.4Z" fill="#758A9B"/>
<path fill-rule="evenodd" clip-rule="evenodd" d="M219.908 310.3H225.208C226.008 310.3 227.108 310.6 227.508 310.9L230.808 313.5C231.208 313.9 230.908 314.1 230.108 314.1H224.808C224.008 314.1 223.008 313.8 222.508 313.5L219.208 310.9C218.808 310.6 219.108 310.3 219.908 310.3Z" fill="#758A9B"/>
<path fill-rule="evenodd" clip-rule="evenodd" d="M209.207 310.3H214.507C215.307 310.3 216.307 310.6 216.807 310.9L220.107 313.5C220.507 313.9 220.207 314.1 219.407 314.1H214.107C213.307 314.1 212.307 313.8 211.807 313.5L208.507 310.8C208.107 310.6 208.407 310.3 209.207 310.3Z" fill="#758A9B"/>
<path fill-rule="evenodd" clip-rule="evenodd" d="M198.507 310.3H203.807C204.607 310.3 205.607 310.6 206.107 310.9L209.407 313.6C209.807 314 209.507 314.2 208.707 314.2H203.407C202.607 314.2 201.607 313.9 201.107 313.6L197.807 310.9C197.407 310.6 197.707 310.3 198.507 310.3Z" fill="#758A9B"/>
<path fill-rule="evenodd" clip-rule="evenodd" d="M187.907 310.3H193.207C194.007 310.3 195.007 310.6 195.507 310.9L198.807 313.6C199.207 314 198.907 314.2 198.107 314.3H192.907C192.107 314.3 191.107 314 190.607 313.7L187.307 311C186.807 310.6 187.107 310.3 187.907 310.3Z" fill="#758A9B"/>
<path fill-rule="evenodd" clip-rule="evenodd" d="M177.307 310.4H182.507C183.307 310.4 184.307 310.7 184.807 311L188.107 313.7C188.507 314.1 188.307 314.4 187.507 314.4H182.307C181.507 314.4 180.507 314.1 180.007 313.8L176.707 311.1C176.207 310.7 176.507 310.4 177.307 310.4Z" fill="#758A9B"/>
<path fill-rule="evenodd" clip-rule="evenodd" d="M166.807 310.4H172.007C172.807 310.4 173.807 310.7 174.307 311L177.607 313.7C178.007 314.1 177.807 314.4 177.007 314.4H171.807C171.007 314.4 170.007 314.1 169.507 313.8L166.107 311.1C165.807 310.7 166.007 310.4 166.807 310.4Z" fill="#758A9B"/>
<path fill-rule="evenodd" clip-rule="evenodd" d="M156.408 310.5H161.608C162.408 310.5 163.408 310.8 163.908 311.1L167.308 313.8C167.708 314.2 167.508 314.5 166.708 314.5H161.608C160.808 314.5 159.808 314.2 159.408 313.9L156.008 311.2C155.308 310.8 155.608 310.5 156.408 310.5Z" fill="#758A9B"/>
<path fill-rule="evenodd" clip-rule="evenodd" d="M146.007 310.6H151.107C151.907 310.6 152.907 310.9 153.407 311.2L156.807 313.9C157.207 314.3 157.007 314.6 156.207 314.6L151.107 314.7C150.307 314.7 149.307 314.4 148.907 314.1L145.507 311.4C145.007 310.9 145.207 310.6 146.007 310.6Z" fill="#758A9B"/>
<path fill-rule="evenodd" clip-rule="evenodd" d="M135.707 310.7L140.807 310.6C141.607 310.6 142.607 310.9 143.107 311.2L146.507 313.9C147.007 314.3 146.707 314.6 145.907 314.6L140.807 314.7C140.007 314.7 139.007 314.4 138.607 314.1L135.207 311.4C134.707 311 135.007 310.7 135.707 310.7Z" fill="#758A9B"/>
<path fill-rule="evenodd" clip-rule="evenodd" d="M125.507 310.8L130.607 310.7C131.407 310.7 132.407 311 132.807 311.3L136.207 314C136.707 314.4 136.407 314.7 135.607 314.7L130.607 314.8C129.807 314.8 128.807 314.5 128.407 314.2L125.007 311.5C124.507 311.2 124.707 310.9 125.507 310.8Z" fill="#758A9B"/>
<path fill-rule="evenodd" clip-rule="evenodd" d="M115.307 311L120.307 310.9C121.107 310.9 122.107 311.2 122.507 311.5L125.907 314.2C126.407 314.6 126.107 314.9 125.307 314.9L120.307 315C119.507 315 118.507 314.7 118.107 314.4L114.707 311.7C114.307 311.3 114.607 311 115.307 311Z" fill="#758A9B"/>
<path fill-rule="evenodd" clip-rule="evenodd" d="M104.907 311.2L110.007 311.1C110.807 311.1 111.807 311.4 112.307 311.8L115.707 314.5C116.207 314.9 115.907 315.2 115.107 315.2L110.007 315.3C109.207 315.3 108.207 315 107.707 314.7L104.307 312C103.907 311.5 104.207 311.2 104.907 311.2Z" fill="#758A9B"/>
<path fill-rule="evenodd" clip-rule="evenodd" d="M111.007 315.9L121.407 315.7C122.207 315.7 123.307 316 123.807 316.4L127.007 319C127.507 319.4 127.207 319.7 126.407 319.7L116.007 319.9C115.207 319.9 114.107 319.6 113.607 319.2L110.407 316.6C110.007 316.3 110.207 315.9 111.007 315.9Z" fill="#758A9B"/>
<path fill-rule="evenodd" clip-rule="evenodd" d="M117.008 320.6L129.408 320.4C130.208 320.4 131.308 320.7 131.808 321.1L135.008 323.7C135.508 324.1 135.208 324.4 134.408 324.4L122.008 324.6C121.208 324.6 120.108 324.3 119.608 323.9L116.408 321.3C115.908 321 116.108 320.6 117.008 320.6Z" fill="#758A9B"/>
<path fill-rule="evenodd" clip-rule="evenodd" d="M122.808 325.3L140.508 325C141.308 325 142.408 325.3 142.908 325.7L146.008 328.3C146.508 328.7 146.208 329 145.308 329L127.608 329.3C126.808 329.3 125.708 329 125.208 328.6L122.108 326C121.708 325.7 121.908 325.3 122.808 325.3Z" fill="#758A9B"/>
<path fill-rule="evenodd" clip-rule="evenodd" d="M129.307 332H139.907L138.107 330.5C137.607 330.1 136.607 329.8 135.707 329.8L128.407 330C127.607 330 127.307 330.4 127.807 330.7L129.307 332Z" fill="#758A9B"/>
<path fill-rule="evenodd" clip-rule="evenodd" d="M125.808 315.7L131.208 315.6C132.008 315.6 133.108 315.9 133.608 316.3L136.808 318.9C137.308 319.3 137.008 319.6 136.208 319.6L130.808 319.7C130.008 319.7 128.908 319.4 128.408 319L125.108 316.4C124.708 316 124.908 315.7 125.808 315.7Z" fill="#758A9B"/>
<path fill-rule="evenodd" clip-rule="evenodd" d="M136.107 315.5L141.507 315.4C142.307 315.4 143.407 315.7 143.907 316.1L147.107 318.7C147.607 319.1 147.307 319.4 146.507 319.4L141.107 319.5C140.307 319.5 139.207 319.2 138.707 318.8L135.507 316.2C135.007 315.8 135.307 315.5 136.107 315.5Z" fill="#758A9B"/>
<path fill-rule="evenodd" clip-rule="evenodd" d="M146.508 315.4L152.008 315.3C152.808 315.3 153.908 315.6 154.408 316L157.608 318.6C158.108 319 157.808 319.3 156.908 319.3L151.508 319.4C150.708 319.4 149.608 319.1 149.108 318.7L145.908 316.1C145.408 315.7 145.708 315.4 146.508 315.4Z" fill="#758A9B"/>
<path fill-rule="evenodd" clip-rule="evenodd" d="M157.007 315.2L162.507 315.1C163.307 315.1 164.407 315.4 164.907 315.8L168.107 318.4C168.607 318.8 168.307 319.1 167.407 319.1L161.907 319.2C161.107 319.2 160.007 318.9 159.507 318.5L156.307 315.9C155.907 315.6 156.207 315.3 157.007 315.2Z" fill="#758A9B"/>
<path fill-rule="evenodd" clip-rule="evenodd" d="M167.607 315.2H173.107C173.907 315.2 175.007 315.5 175.507 315.9L178.707 318.5C179.207 318.9 178.907 319.2 178.007 319.2H172.507C171.707 319.2 170.607 318.9 170.107 318.5L166.907 315.9C166.407 315.5 166.707 315.2 167.607 315.2Z" fill="#758A9B"/>
<path fill-rule="evenodd" clip-rule="evenodd" d="M178.207 315.1H183.807C184.707 315.1 185.707 315.4 186.207 315.8L189.407 318.4C189.907 318.8 189.607 319.1 188.707 319.1H183.107C182.307 319.1 181.207 318.8 180.707 318.4L177.507 315.8C177.107 315.4 177.407 315.1 178.207 315.1Z" fill="#758A9B"/>
<path fill-rule="evenodd" clip-rule="evenodd" d="M188.907 315H194.507C195.407 315 196.407 315.3 196.907 315.7L200.007 318.3C200.507 318.7 200.107 319 199.307 319H193.707C192.807 319 191.807 318.7 191.307 318.3L188.107 315.7C187.807 315.3 188.107 315 188.907 315Z" fill="#758A9B"/>
<path fill-rule="evenodd" clip-rule="evenodd" d="M199.707 315H205.307C206.207 315 207.307 315.3 207.707 315.7L210.807 318.3C211.307 318.7 210.907 319 210.107 319H204.507C203.607 319 202.607 318.7 202.107 318.3L199.007 315.7C198.507 315.3 198.807 315 199.707 315Z" fill="#758A9B"/>
<path fill-rule="evenodd" clip-rule="evenodd" d="M210.507 314.9H216.207C217.107 314.9 218.207 315.2 218.607 315.6L221.707 318.1C222.207 318.5 221.807 318.8 221.007 318.8H215.307C214.407 318.8 213.407 318.5 212.907 318.1L209.807 315.5C209.307 315.3 209.707 314.9 210.507 314.9Z" fill="#758A9B"/>
<path fill-rule="evenodd" clip-rule="evenodd" d="M221.407 314.9H227.107C228.007 314.9 229.107 315.2 229.507 315.6L232.607 318.1C233.107 318.5 232.707 318.8 231.907 318.8H226.207C225.307 318.8 224.207 318.5 223.807 318.1L220.707 315.6C220.207 315.3 220.607 314.9 221.407 314.9Z" fill="#758A9B"/>
<path fill-rule="evenodd" clip-rule="evenodd" d="M232.407 315H238.107C239.007 315 240.107 315.3 240.507 315.7L243.607 318.2C244.107 318.6 243.707 318.9 242.807 318.9H237.107C236.207 318.9 235.107 318.6 234.707 318.2L231.607 315.7C231.207 315.3 231.507 315 232.407 315Z" fill="#758A9B"/>
<path fill-rule="evenodd" clip-rule="evenodd" d="M243.407 315H249.207C250.107 315 251.207 315.3 251.607 315.7L254.707 318.2C255.207 318.6 254.807 318.9 253.907 318.9H248.107C247.207 318.9 246.107 318.6 245.707 318.2L242.607 315.7C242.207 315.3 242.507 315 243.407 315Z" fill="#758A9B"/>
<path fill-rule="evenodd" clip-rule="evenodd" d="M134.507 320.3L139.907 320.2C140.707 320.2 141.807 320.5 142.307 320.9L145.507 323.5C146.007 323.9 145.707 324.2 144.907 324.2L139.507 324.3C138.707 324.3 137.607 324 137.207 323.6L134.007 321C133.407 320.6 133.707 320.3 134.507 320.3Z" fill="#758A9B"/>
<path fill-rule="evenodd" clip-rule="evenodd" d="M144.807 320.1L150.207 320C151.007 320 152.107 320.3 152.607 320.7L155.807 323.3C156.307 323.7 156.007 324 155.107 324L149.707 324.1C148.907 324.1 147.807 323.8 147.407 323.4L144.207 320.8C143.707 320.5 144.007 320.2 144.807 320.1Z" fill="#758A9B"/>
<path fill-rule="evenodd" clip-rule="evenodd" d="M155.207 320L160.707 319.9C161.507 319.9 162.607 320.2 163.107 320.6L166.207 323.2C166.707 323.6 166.407 323.9 165.507 323.9L160.107 324C159.307 324 158.207 323.7 157.707 323.3L154.507 320.7C154.107 320.3 154.407 320 155.207 320Z" fill="#758A9B"/>
<path fill-rule="evenodd" clip-rule="evenodd" d="M165.707 319.9L171.207 319.8C172.007 319.8 173.107 320.1 173.607 320.5L176.707 323.1C177.207 323.5 176.907 323.8 176.007 323.8L170.507 323.9C169.707 323.9 168.607 323.6 168.107 323.2L165.007 320.6C164.607 320.2 164.907 319.9 165.707 319.9Z" fill="#758A9B"/>
<path fill-rule="evenodd" clip-rule="evenodd" d="M176.307 319.8H181.807C182.607 319.8 183.707 320.1 184.207 320.5L187.307 323.1C187.807 323.5 187.407 323.8 186.607 323.8L181.107 323.9C180.307 323.9 179.207 323.6 178.707 323.2L175.607 320.6C175.107 320.1 175.407 319.8 176.307 319.8Z" fill="#758A9B"/>
<path fill-rule="evenodd" clip-rule="evenodd" d="M186.907 319.7H192.507C193.407 319.7 194.407 320 194.907 320.4L198.007 323C198.507 323.4 198.107 323.7 197.307 323.7H191.807C191.007 323.7 189.907 323.4 189.407 323L186.307 320.4C185.707 320 186.107 319.7 186.907 319.7Z" fill="#758A9B"/>
<path fill-rule="evenodd" clip-rule="evenodd" d="M197.607 319.6H203.207C204.107 319.6 205.107 319.9 205.607 320.3L208.707 322.8C209.207 323.2 208.807 323.5 208.007 323.5H202.407C201.507 323.5 200.507 323.2 200.007 322.8L196.907 320.2C196.407 319.9 196.707 319.6 197.607 319.6Z" fill="#758A9B"/>
<path fill-rule="evenodd" clip-rule="evenodd" d="M208.407 319.6H214.007C214.907 319.6 215.907 319.9 216.407 320.3L219.507 322.8C220.007 323.2 219.607 323.5 218.807 323.5H213.207C212.307 323.5 211.307 323.2 210.807 322.8L207.607 320.3C207.207 319.9 207.507 319.6 208.407 319.6Z" fill="#758A9B"/>
<path fill-rule="evenodd" clip-rule="evenodd" d="M219.207 319.5H224.907C225.807 319.5 226.807 319.8 227.307 320.2L230.407 322.7C230.907 323.1 230.507 323.4 229.607 323.4H223.907C223.007 323.4 222.007 323.1 221.507 322.7L218.407 320.2C218.007 319.9 218.307 319.5 219.207 319.5Z" fill="#758A9B"/>
<path fill-rule="evenodd" clip-rule="evenodd" d="M230.108 319.5H235.808C236.708 319.5 237.808 319.8 238.208 320.2L241.208 322.7C241.608 323.1 241.308 323.4 240.408 323.4H234.708C233.808 323.4 232.808 323.1 232.308 322.7L229.308 320.2C228.908 319.8 229.208 319.5 230.108 319.5Z" fill="#758A9B"/>
<path fill-rule="evenodd" clip-rule="evenodd" d="M241.008 319.5H246.708C247.608 319.5 248.708 319.8 249.108 320.2L252.108 322.7C252.508 323.1 252.208 323.4 251.308 323.4H245.608C244.708 323.4 243.608 323.1 243.208 322.7L240.208 320.2C239.808 319.8 240.208 319.5 241.008 319.5Z" fill="#758A9B"/>
<path fill-rule="evenodd" clip-rule="evenodd" d="M145.607 324.9L151.007 324.8C151.807 324.8 152.907 325.1 153.307 325.5L156.407 328.1C156.907 328.5 156.607 328.8 155.707 328.8L150.307 328.9C149.507 328.9 148.407 328.6 148.007 328.2L144.907 325.6C144.507 325.2 144.807 324.9 145.607 324.9Z" fill="#758A9B"/>
<path fill-rule="evenodd" clip-rule="evenodd" d="M156.008 324.7L161.408 324.6C162.208 324.6 163.308 324.9 163.808 325.3L166.908 327.9C167.408 328.3 167.108 328.6 166.208 328.6L160.808 328.7C160.008 328.7 158.908 328.4 158.508 328L155.408 325.4C154.908 325.1 155.108 324.7 156.008 324.7Z" fill="#758A9B"/>
<path fill-rule="evenodd" clip-rule="evenodd" d="M166.408 324.6L171.908 324.5C172.708 324.5 173.808 324.8 174.308 325.2L177.408 327.8C177.908 328.2 177.508 328.5 176.708 328.5L171.308 328.6C170.508 328.6 169.408 328.3 169.008 327.9L165.908 325.3C165.308 324.9 165.608 324.6 166.408 324.6Z" fill="#758A9B"/>
<path fill-rule="evenodd" clip-rule="evenodd" d="M176.907 324.5L182.407 324.4C183.207 324.4 184.307 324.7 184.807 325.1L187.907 327.7C188.407 328.1 188.007 328.4 187.207 328.4L181.707 328.5C180.907 328.5 179.807 328.2 179.407 327.8L176.307 325.2C175.707 324.8 176.107 324.5 176.907 324.5Z" fill="#758A9B"/>
<path fill-rule="evenodd" clip-rule="evenodd" d="M187.507 324.4H193.007C193.807 324.4 194.907 324.7 195.407 325.1L198.407 327.6C198.807 328 198.507 328.3 197.707 328.3L192.207 328.4C191.407 328.4 190.307 328.1 189.807 327.7L186.707 325.2C186.307 324.7 186.607 324.4 187.507 324.4Z" fill="#758A9B"/>
<path fill-rule="evenodd" clip-rule="evenodd" d="M198.107 324.3H203.707C204.607 324.3 205.607 324.6 206.107 325L209.107 327.5C209.507 327.9 209.207 328.2 208.407 328.2H202.807C202.007 328.2 200.907 327.9 200.407 327.5L197.407 325C196.907 324.6 197.207 324.3 198.107 324.3Z" fill="#758A9B"/>
<path fill-rule="evenodd" clip-rule="evenodd" d="M208.807 324.2H214.407C215.307 324.2 216.307 324.5 216.807 324.9L219.807 327.4C220.207 327.8 219.907 328.1 219.107 328.1H213.507C212.607 328.1 211.607 327.8 211.107 327.4L208.107 324.9C207.607 324.5 207.907 324.2 208.807 324.2Z" fill="#758A9B"/>
<path fill-rule="evenodd" clip-rule="evenodd" d="M219.507 324.1H225.107C226.007 324.1 227.007 324.4 227.507 324.8L230.507 327.3C230.907 327.7 230.607 328 229.707 328H224.107C223.207 328 222.207 327.7 221.707 327.3L218.707 324.8C218.407 324.5 218.707 324.2 219.507 324.1Z" fill="#758A9B"/>
<path fill-rule="evenodd" clip-rule="evenodd" d="M230.407 324.1H236.107C237.007 324.1 238.007 324.4 238.507 324.8L241.507 327.3C241.907 327.7 241.607 328 240.707 328H235.007C234.107 328 233.107 327.7 232.607 327.3L229.607 324.8C229.207 324.4 229.507 324.1 230.407 324.1Z" fill="#758A9B"/>
<path fill-rule="evenodd" clip-rule="evenodd" d="M241.307 324.1H247.007C247.907 324.1 249.007 324.4 249.407 324.8L252.407 327.3C252.807 327.7 252.507 328 251.607 328H245.907C245.007 328 244.007 327.7 243.507 327.3L240.507 324.8C240.107 324.4 240.407 324.1 241.307 324.1Z" fill="#758A9B"/>
<path fill-rule="evenodd" clip-rule="evenodd" d="M252.307 324.1H262.707C263.607 324.1 264.707 324.4 265.107 324.8L268.007 327.3C268.407 327.7 268.107 328 267.207 328H256.807C255.907 328 254.807 327.7 254.407 327.3L251.507 324.8C251.007 324.4 251.407 324.1 252.307 324.1Z" fill="#758A9B"/>
<path fill-rule="evenodd" clip-rule="evenodd" d="M142.108 332H150.608L148.608 330.3C148.108 329.9 147.108 329.6 146.308 329.6L141.008 329.7C140.208 329.7 139.908 330 140.408 330.4L142.108 332Z" fill="#758A9B"/>
<path fill-rule="evenodd" clip-rule="evenodd" d="M152.507 332H161.007L158.707 330.1C158.207 329.7 157.207 329.4 156.407 329.4L151.007 329.5C150.207 329.5 149.907 329.8 150.307 330.2L152.507 332Z" fill="#758A9B"/>
<path fill-rule="evenodd" clip-rule="evenodd" d="M163.007 332H171.607L169.207 329.9C168.707 329.5 167.707 329.2 166.907 329.2L161.507 329.3C160.707 329.3 160.407 329.6 160.807 330L163.007 332Z" fill="#758A9B"/>
<path fill-rule="evenodd" clip-rule="evenodd" d="M173.607 332H225.007C225.007 332 225.007 331.9 224.907 331.9L221.907 329.4C221.507 329 220.407 328.7 219.507 328.7L171.707 329.2C170.907 329.2 170.607 329.5 171.007 329.9L173.607 332Z" fill="#758A9B"/>
<path fill-rule="evenodd" clip-rule="evenodd" d="M227.007 331.9L227.107 332H235.807L235.707 331.9L232.807 329.4C232.407 329 231.307 328.7 230.407 328.7H224.807C223.907 328.7 223.607 329 224.007 329.4L227.007 331.9Z" fill="#758A9B"/>
<path fill-rule="evenodd" clip-rule="evenodd" d="M237.807 331.9C237.907 332 237.907 332 238.007 332.1H246.707C246.707 332 246.607 332 246.607 331.9L243.607 329.3C243.207 328.9 242.107 328.6 241.207 328.6H235.507C234.607 328.6 234.307 328.9 234.707 329.3L237.807 331.9Z" fill="#758A9B"/>
<path fill-rule="evenodd" clip-rule="evenodd" d="M248.607 331.8C248.707 331.9 248.807 331.9 248.907 332H262.207C262.207 331.9 262.107 331.9 262.007 331.8L259.107 329.3C258.707 328.9 257.607 328.6 256.707 328.6H246.407C245.507 328.6 245.207 328.9 245.607 329.3L248.607 331.8Z" fill="#758A9B"/>
<path fill-rule="evenodd" clip-rule="evenodd" d="M264.907 331.9C265.007 332 265.107 332 265.207 332.1H273.507C273.507 332 273.407 332 273.407 331.9L270.407 329.3C270.007 328.9 269.007 328.7 268.107 328.7H262.607C261.807 328.7 261.407 329 261.807 329.3L264.907 331.9Z" fill="#758A9B"/>
<path d="M202.307 336.4C201.907 336.2 201.607 336 201.307 335.8C200.607 335.5 200.107 335.6 199.407 336.2C199.207 336.6 199.007 337 198.607 337.3C198.107 337.8 197.407 338.3 196.807 338.8C196.407 339.3 196.107 339.7 195.707 340.2C200.607 346.6 205.307 353.1 209.807 359.7C211.107 361.5 214.607 363.1 216.407 359.6C216.707 359.1 211.407 349 204.307 336.7C203.607 336.8 203.007 336.7 202.307 336.4Z" fill="#EBAEA2"/>
<path d="M243.207 239.5C239.507 247.6 227.307 232.5 219.307 236.6C219.307 238.5 214.407 242.9 213.307 244.3C208.707 250.1 204.007 255.9 199.407 261.8C189.807 274.1 179.807 287 172.107 300.7C168.207 307.7 177.707 318 183.107 324.5C187.607 329.9 192.007 335.5 196.207 341.1C196.507 341.3 196.907 341.5 197.407 341.7C199.907 341.8 202.207 341.2 203.907 339.7C204.307 339.3 204.607 338.8 204.907 338.2C199.307 328.5 192.507 317.3 186.307 308.1C185.807 307.4 186.007 306.4 186.707 305.8C199.407 295.4 252.107 250.7 243.207 239.5Z" fill="#313A42"/>
<path d="M203.007 337.1C202.607 337.8 202.207 338.2 201.607 338.5C206.807 345.6 211.807 352.8 215.707 360.6C215.907 360.3 216.107 360 216.307 359.7C216.607 359.2 211.007 348.6 203.607 335.9C203.507 336.2 203.307 336.7 203.007 337.1Z" fill="#E09383"/>
<path d="M222.407 269C215.807 264.7 180.007 304.2 180.107 305.9C180.507 310.2 185.007 316.3 187.507 319.7C190.807 324.2 194.307 328.5 197.607 333C199.407 335.5 201.207 337.9 203.007 340.4C203.407 340.2 203.707 340 204.007 339.7C204.407 339.3 204.707 338.8 205.007 338.2C199.407 328.5 192.607 317.3 186.407 308.1C185.907 307.4 186.107 306.4 186.807 305.8C192.107 301.5 197.207 297.1 202.307 292.6C207.607 287.9 220.007 280.1 222.307 273.3C223.207 270.8 223.307 269.6 222.407 269Z" fill="#202529"/>
<path d="M268.107 348.8C267.807 348.4 267.507 348.1 267.107 347.7C267.007 347.8 266.907 347.9 266.807 348C266.807 348 266.807 348 266.707 348.1C264.907 350.6 262.907 353 260.907 355.3C266.807 360.3 272.807 365.7 278.707 371.3C280.307 372.8 283.407 373.9 284.307 370.2C284.707 369.1 277.507 359.4 268.107 348.8Z" fill="#EBAEA2"/>
<path d="M262.107 356.2C263.607 356.2 265.007 355.8 266.307 354.8C268.207 353.4 268.707 351.2 268.307 349.1C268.207 349 268.207 348.9 268.107 348.9C254.807 333.9 244.707 324.5 241.507 321C235.007 313.9 254.107 254.2 243.207 241.8C241.407 250.5 226.207 250.4 219.307 256.2C219.507 257.2 221.207 319.3 226.707 326.3C229.107 329.3 242.707 339.7 260.707 355.1C261.207 355.4 261.707 355.8 262.107 356.2Z" fill="#313A42"/>
<path d="M268.107 348.8C268.007 348.7 267.907 348.6 267.907 348.5C267.707 349 267.507 349.4 267.307 349.8C267.007 350.4 266.607 350.8 266.107 351.1C266.007 351.5 265.807 351.8 265.607 352.1C266.407 352.9 267.107 353.7 267.907 354.5C270.407 357.1 272.907 359.7 275.507 362.2C278.407 364.7 281.407 367.3 284.307 369.8C283.807 367.9 277.007 358.7 268.107 348.8Z" fill="#E09383"/>
<path d="M267.308 353.9C268.408 352.5 268.708 350.8 268.408 349.1C268.308 349 268.308 348.9 268.208 348.9C254.908 333.9 244.808 324.5 241.608 321C235.408 314.2 252.608 259.2 244.508 243.6C242.908 257.5 239.608 271.1 236.908 284.8C235.708 290.8 234.508 296.9 233.808 303C233.208 307.6 232.908 312.2 234.008 316.7C235.908 324.4 241.408 330.2 247.208 335.4C250.508 338.4 254.008 341.2 257.308 344.2C260.808 347.1 264.008 350.5 267.308 353.9Z" fill="#202529"/>
<path d="M245.307 202.8C242.907 202.8 240.007 201 239.107 198.3C238.407 196.2 239.907 196.1 239.407 187.7C239.407 187 239.107 186.4 239.207 185.7C239.307 184.6 240.207 183.5 241.307 183.2C242.407 182.9 243.707 183.3 244.407 184.1C245.007 184.8 245.207 185.7 245.407 186.5C246.607 191.3 247.707 196.6 251.407 200.2C252.207 200.9 248.507 202.2 248.107 202.4C247.107 202.6 246.207 202.8 245.307 202.8Z" fill="#EBAEA2"/>
<path d="M240.507 186.2C241.507 188.7 244.107 190.3 246.207 191.8C246.407 192 246.707 192.2 246.907 192.3C246.307 190.4 245.807 188.4 245.307 186.5C245.107 185.7 244.907 184.8 244.307 184.1C243.607 183.2 242.307 182.8 241.207 183.2C240.407 183.4 239.807 184 239.407 184.7C239.907 185 240.307 185.6 240.507 186.2Z" fill="#E09383"/>
<path d="M290.908 209.6L179.708 174.8C179.108 174.6 178.508 174.9 178.408 175.5L158.608 238.7C158.508 239.1 158.608 239.4 158.708 239.5C158.808 239.6 159.008 239.9 159.308 240L270.508 274.8C270.908 274.9 271.208 274.8 271.308 274.7C271.408 274.6 271.708 274.4 271.808 274.1L291.608 210.9C291.708 210.4 291.408 209.8 290.908 209.6Z" fill="white"/>
<path d="M292.107 205.6L180.907 170.8C177.307 169.7 173.407 171.7 172.207 175.3L152.907 236.9C152.307 238.7 152.507 240.5 153.407 242.2C154.307 243.8 155.707 245 157.507 245.6L268.707 280.4C269.407 280.6 270.107 280.7 270.807 280.7C271.907 280.7 273.007 280.4 274.007 279.9C275.607 279 276.807 277.6 277.407 275.8L296.707 214.2C297.807 210.6 295.707 206.7 292.107 205.6ZM271.207 274.8C271.107 274.9 270.807 275 270.407 274.9L159.207 240.1C158.807 240 158.607 239.7 158.607 239.6C158.607 239.5 158.407 239.2 158.507 238.8L177.807 177.2C178.007 176.6 178.607 176.3 179.107 176.5L290.307 211.3C290.907 211.5 291.207 212.1 291.007 212.6L271.707 274.2C271.707 274.5 271.407 274.7 271.207 274.8Z" fill="#5693E3"/>
<path d="M239.307 209.7L186.007 193.1C184.007 192.5 182.807 190.3 183.407 188.2C184.007 186.2 186.207 185 188.307 185.6L241.607 202.2C243.607 202.8 244.807 205 244.207 207.1C243.607 209.2 241.407 210.3 239.307 209.7Z" fill="#CADCF3"/>
<path d="M208.807 216.3L181.507 207.8C179.507 207.2 178.307 205 178.907 202.9C179.507 200.9 181.707 199.7 183.807 200.3L211.107 208.8C213.107 209.4 214.307 211.6 213.707 213.7C213.007 215.8 210.807 216.9 208.807 216.3Z" fill="#3988E4"/>
<path d="M194.307 227.9L176.907 222.4C174.907 221.8 173.707 219.6 174.307 217.5C174.907 215.5 177.107 214.3 179.207 214.9L196.607 220.4C198.607 221 199.807 223.2 199.207 225.3C198.507 227.4 196.307 228.5 194.307 227.9Z" fill="#CADCF3"/>
<path d="M218.107 251.5L172.207 237.2C170.207 236.6 169.007 234.4 169.607 232.3C170.207 230.3 172.407 229.1 174.507 229.7L220.407 244C222.407 244.6 223.607 246.8 223.007 248.9C222.407 251 220.207 252.2 218.107 251.5Z" fill="#CADCF3"/>
<path d="M265.008 231.6L261.208 230.4C255.408 228.6 252.208 222.4 254.008 216.6C255.808 210.8 262.008 207.6 267.808 209.4L271.608 210.6C277.408 212.4 280.608 218.6 278.808 224.4C276.908 230.2 270.808 233.4 265.008 231.6Z" fill="#5693E3"/>
<path d="M259.108 264.3L235.808 257C232.208 255.9 230.108 252 231.308 248.4C232.408 244.8 236.308 242.7 239.908 243.9L263.208 251.2C266.808 252.3 268.908 256.2 267.708 259.8C266.608 263.4 262.708 265.4 259.108 264.3Z" fill="#3988E4"/>
<path d="M269.907 246.8L236.807 236.5C235.907 236.2 235.407 235.3 235.707 234.4C236.007 233.5 236.907 233 237.807 233.3L270.907 243.6C271.807 243.9 272.307 244.8 272.007 245.7C271.807 246.6 270.807 247.1 269.907 246.8Z" fill="#CADCF3"/>
<path d="M203.007 221.9C202.907 221.1 200.807 222.2 200.307 222.7C192.207 230.4 181.007 235.2 171.407 240.9C169.907 241.8 168.407 242.7 167.007 243.7C166.407 245.9 166.507 248 167.007 250.1C167.707 251.2 168.707 252 170.007 251.7C170.707 251.6 171.407 251.6 171.907 251.8C176.407 249.7 180.407 246.9 184.207 243.3C200.707 227.7 203.307 224 203.007 221.9Z" fill="#EBAEA2"/>
<path d="M167.607 243.2C165.507 244.6 163.707 246.2 162.307 248.3C161.207 249.9 160.707 252.4 162.207 253.6C163.407 254.6 165.207 254.3 166.707 253.8C168.707 253.1 170.707 252.4 172.507 251.5C169.807 249.5 167.907 246.6 167.607 243.2Z" fill="#146EC7"/>
<path d="M199.707 225.4C201.007 224.3 202.307 223.2 203.407 222C203.907 221.3 204.407 220.7 204.707 219.8C205.007 218.6 205.007 217.5 205.607 216.4C206.007 215.5 206.907 215 207.507 214.3C207.607 214.2 207.807 213.9 207.607 213.8C207.507 213.7 207.407 213.7 207.307 213.7C207.007 213.7 206.807 213.9 206.507 214C207.107 213.2 206.407 212.6 205.707 213.3C206.507 212.5 205.407 212.4 204.507 213.2C205.007 212.4 203.807 212.7 203.207 213.5C202.707 214.1 201.807 215.3 201.407 216.4C201.407 216.5 201.307 216.6 201.307 216.7C201.107 216.4 200.907 216.2 200.707 216C200.407 215.8 200.007 215.6 199.707 215.8C200.907 218.4 201.907 221 199.807 223.6C199.607 223.9 199.307 224.1 199.307 224.5C199.107 224.9 199.407 225.1 199.707 225.4Z" fill="#EBAEA2"/>
<path d="M280.507 255.2C280.707 255.2 280.907 255.3 281.007 255.3C282.807 255.9 284.607 256.5 286.307 257.3L286.407 257.2C287.107 256.3 287.907 255.4 288.807 254.6C287.707 245.9 284.107 237.6 280.407 229.8C279.907 228.7 276.907 221.9 274.407 216C272.407 211.3 270.707 207.2 270.707 207.2C270.407 207.3 270.107 207.6 270.007 208C269.907 208.3 269.907 208.7 269.907 209C269.807 208.9 269.707 208.9 269.707 208.8C268.807 208.2 267.307 207.7 266.507 207.6C265.507 207.4 264.307 207.8 265.307 208.2C264.107 208.1 263.307 208.8 264.407 209C263.307 208.8 263.107 209.7 264.107 210C263.807 210 263.507 210.1 263.307 210.2C263.207 210.2 263.107 210.3 263.107 210.4C263.107 210.6 263.307 210.7 263.507 210.7C264.507 210.9 265.507 210.8 266.307 211.2C267.407 211.8 268.107 212.7 269.007 213.4C269.707 213.9 270.407 214 271.107 214.3C271.807 220.4 278.307 249 280.007 254.1C280.307 254.6 280.407 254.9 280.507 255.2Z" fill="#EBAEA2"/>
<path d="M288.207 250.8C286.307 253.1 283.507 254.5 280.307 254.5C284.107 265.8 289.507 264.4 289.207 257.9C289.007 255.5 288.607 253.1 288.207 250.8Z" fill="#146EC7"/>
<path d="M247.507 184.7L250.607 181.4C253.107 178.5 252.907 174.2 250.007 171.6C247.407 169.3 243.507 169.3 240.907 171.5C240.807 171.6 240.707 171.7 240.607 171.8L236.307 176.7C234.107 179.2 231.807 181.6 234.307 183.8C238.407 187.4 242.007 187.3 244.407 185.5C243.907 186.3 244.007 187.2 244.707 187.8C245.407 188.5 247.107 188.3 247.807 187.7C249.107 186.7 248.707 185.5 247.507 184.7Z" fill="#EBAEA2"/>
<path d="M240.507 174.7C242.307 179 247.407 177.5 248.107 179.3C248.707 181 246.607 182 246.807 183.4C246.807 183.6 246.907 183.9 247.107 184C247.407 184.2 247.807 184.2 248.107 184C249.007 183.4 249.907 182.1 250.607 181.3C253.107 178.4 252.907 174.1 250.007 171.5C248.407 170.1 246.207 169.5 244.207 169.9C242.207 170.3 239.307 171.9 240.507 174.7Z" fill="#E09383"/>
<path d="M243.607 176.3C240.907 174.9 234.307 170.2 237.807 161.5C240.407 155 246.907 156 248.607 157.6C249.807 158.7 252.407 161.1 250.207 166.2C249.307 168.3 252.507 168 253.507 169.5C255.007 171.6 253.307 173.5 253.107 174.3C252.407 177 253.907 176.8 253.907 178.2C254.007 180.5 249.407 183.7 248.007 185.1C248.007 185.1 246.407 185.4 245.907 184.4C245.507 183.5 251.707 179.6 250.107 177.4C248.507 175.3 246.907 178 243.607 176.3Z" fill="#202529"/>
<path d="M279.207 375.4L275.407 377.3C274.307 377.8 274.807 379.4 275.907 379.3L279.907 379C279.907 378.7 279.207 375.5 279.207 375.4Z" fill="#202529"/>
<path d="M281.207 378.1L287.007 368.7C287.407 368 287.107 367.1 286.307 366.9L281.907 365.6L279.107 371.1L278.007 376.9C277.607 378.8 280.207 379.8 281.207 378.1Z" fill="#202529"/>
<path d="M278.407 374.5L278.207 375.3V375.2C278.907 375.3 279.607 375.4 280.307 375.5C280.807 375.5 280.807 374.8 280.307 374.7C279.707 374.7 279.107 374.6 278.407 374.5Z" fill="#FAFBFD"/>
<path d="M280.707 373.2C280.007 373.2 279.407 373 278.707 372.9L278.507 373.7C279.207 373.8 279.907 374 280.607 374C281.207 373.9 281.207 373.2 280.707 373.2Z" fill="#FAFBFD"/>
<path d="M279.007 371.3L278.907 372L280.907 372.2C281.407 372.2 281.407 371.5 280.907 371.4L279.007 371.3Z" fill="#FAFBFD"/>
<path d="M217.707 363.5L216.407 359L210.307 359.7L205.207 361.8L201.207 363.2C200.107 363.6 200.407 365.2 201.507 365.2L216.507 365.1C217.307 365.1 217.907 364.3 217.707 363.5Z" fill="#202529"/>
<path d="M207.007 361L206.207 361.3H206.307C206.607 361.9 206.907 362.6 207.207 363.2C207.407 363.6 208.107 363.2 207.807 362.8C207.607 362.2 207.307 361.6 207.007 361Z" fill="#FAFBFD"/>
<path d="M209.406 362.3C209.006 361.7 208.806 361.1 208.606 360.5L207.906 360.8C208.206 361.5 208.406 362.2 208.806 362.8C209.006 363.1 209.606 362.7 209.406 362.3Z" fill="#FAFBFD"/>
<path d="M210.007 359.8L209.307 360.1L210.207 361.9C210.407 362.3 211.107 361.9 210.807 361.5L210.007 359.8Z" fill="#FAFBFD"/>
<path d="M186.907 366.8C178.207 360.6 180.507 347.4 167.207 345.7C161.407 344.9 154.607 347 150.007 343.3C144.707 339 146.507 330.4 143.607 324.1C141.107 318.7 134.607 315.5 128.907 316.9C121.207 318.6 110.007 327.5 105.507 315.7C104.307 312.5 104.107 309 103.907 305.5C103.507 297.6 103.207 289.6 100.207 282.3C94.8066 269.3 82.0066 265.1 69.5066 271.2C62.4066 274.7 55.4066 281.8 54.3066 290C78.0066 342.2 130.607 378.5 191.707 378.5C197.507 378.5 203.107 378.2 208.707 377.5C201.707 373.6 199.407 375.8 186.907 366.8Z" fill="#D5F0EB"/>
<path d="M361.107 189.6H310.707C303.407 189.6 297.507 183.7 297.507 176.4V126C297.507 118.7 303.407 112.8 310.707 112.8H361.107C368.407 112.8 374.307 118.7 374.307 126V176.4C374.207 183.7 368.307 189.6 361.107 189.6Z" fill="#5693E3"/>
<path d="M364.907 182.7H306.907C305.507 182.7 304.407 181.6 304.407 180.2V122.2C304.407 120.8 305.507 119.7 306.907 119.7H364.907C366.307 119.7 367.407 120.8 367.407 122.2V180.2C367.407 181.6 366.207 182.7 364.907 182.7Z" fill="white"/>
<path d="M347.707 113.5V138.5L353.807 132.6L360.007 138.5V113.5H347.707Z" fill="#146EC7"/>
<path d="M337.307 136.1H315.407C313.407 136.1 311.807 134.5 311.807 132.5C311.807 130.5 313.407 128.9 315.407 128.9H337.307C339.307 128.9 340.907 130.5 340.907 132.5C340.907 134.5 339.307 136.1 337.307 136.1Z" fill="#CADCF3"/>
<path d="M356.507 149.1H315.407C313.407 149.1 311.807 147.5 311.807 145.5C311.807 143.5 313.407 141.9 315.407 141.9H356.507C358.507 141.9 360.107 143.5 360.107 145.5C360.007 147.5 358.407 149.1 356.507 149.1Z" fill="#CADCF3"/>
<path d="M356.507 162.1H315.407C313.407 162.1 311.807 160.5 311.807 158.5C311.807 156.5 313.407 154.9 315.407 154.9H356.507C358.507 154.9 360.107 156.5 360.107 158.5C360.007 160.5 358.407 162.1 356.507 162.1Z" fill="#CADCF3"/>
<path d="M356.507 175.2H315.407C313.407 175.2 311.807 173.6 311.807 171.6C311.807 169.6 313.407 168 315.407 168H356.507C358.507 168 360.107 169.6 360.107 171.6C360.007 173.6 358.407 175.2 356.507 175.2Z" fill="#CADCF3"/>
<path d="M287.007 72.2H261.807C258.107 72.2 255.207 69.2 255.207 65.6V56.6C255.207 52.9 258.207 50 261.807 50H287.007C290.707 50 293.607 53 293.607 56.6V65.6C293.707 69.2 290.707 72.2 287.007 72.2Z" fill="#3988E4"/>
<path d="M230.507 107.8H155.907C153.907 107.8 152.307 106.2 152.307 104.2V70.2001C152.307 68.2001 153.907 66.6001 155.907 66.6001H230.507C232.507 66.6001 234.107 68.2001 234.107 70.2001V104.2C234.107 106.2 232.507 107.8 230.507 107.8Z" fill="#C4DEF5"/>
<path d="M222.907 79.1001H163.307C161.907 79.1001 160.707 77.9001 160.707 76.5001C160.707 75.1001 161.907 73.9001 163.307 73.9001H222.907C224.307 73.9001 225.507 75.1001 225.507 76.5001C225.507 77.9001 224.307 79.1001 222.907 79.1001Z" fill="white"/>
<path d="M207.106 89.9001H163.206C161.806 89.9001 160.606 88.7001 160.606 87.3001C160.606 85.9001 161.806 84.7001 163.206 84.7001H207.106C208.506 84.7001 209.706 85.9001 209.706 87.3001C209.706 88.7001 208.606 89.9001 207.106 89.9001Z" fill="white"/>
<path d="M217.006 100.7H163.206C161.806 100.7 160.606 99.5001 160.606 98.1001C160.606 96.7001 161.806 95.5001 163.206 95.5001H217.006C218.406 95.5001 219.606 96.7001 219.606 98.1001C219.606 99.5001 218.506 100.7 217.006 100.7Z" fill="white"/>
</svg>
