<svg width="41" height="40" viewBox="0 0 41 40" fill="none" xmlns="http://www.w3.org/2000/svg">
<g clip-path="url(#clip0_3695_4664)">
<path d="M31.0264 9.47361L21.5528 8.42101L9.97382 9.47361L8.92102 20L9.97362 30.5264L20.5 31.8422L31.0264 30.5264L32.079 19.737L31.0264 9.47361Z" fill="white"/>
<path d="M14.2922 25.8052C13.5054 25.2736 12.9606 24.4974 12.6632 23.471L14.4896 22.7184C14.6554 23.35 14.9448 23.8394 15.358 24.1868C15.7686 24.5342 16.2686 24.7052 16.8528 24.7052C17.4502 24.7052 17.9634 24.5236 18.3922 24.1604C18.821 23.7972 19.037 23.334 19.037 22.7736C19.037 22.2 18.8106 21.7314 18.358 21.3684C17.9054 21.0054 17.337 20.8236 16.658 20.8236H15.6028V19.0158H16.55C17.1342 19.0158 17.6264 18.858 18.0264 18.5422C18.4264 18.2264 18.6264 17.7948 18.6264 17.2448C18.6264 16.7554 18.4474 16.3658 18.0896 16.0738C17.7318 15.7818 17.279 15.6344 16.729 15.6344C16.1922 15.6344 15.7658 15.7766 15.45 16.0634C15.1342 16.3502 14.9052 16.7028 14.7606 17.1186L12.9528 16.366C13.1922 15.687 13.6318 15.087 14.2764 14.5686C14.9212 14.0502 15.7448 13.7896 16.7448 13.7896C17.4842 13.7896 18.15 13.9318 18.7396 14.2186C19.329 14.5054 19.7922 14.9028 20.1264 15.408C20.4606 15.9158 20.6264 16.4844 20.6264 17.1158C20.6264 17.7606 20.4712 18.3052 20.1606 18.7526C19.85 19.2 19.4684 19.542 19.0158 19.7816V19.8894C19.6132 20.1394 20.1 20.521 20.4842 21.0342C20.8658 21.5474 21.0578 22.1606 21.0578 22.8764C21.0578 23.5922 20.8762 24.2316 20.513 24.7922C20.1498 25.3528 19.6472 25.7948 19.0104 26.1158C18.371 26.4368 17.6526 26.6 16.8552 26.6C15.9316 26.6026 15.079 26.3368 14.2922 25.8052Z" fill="#1A73E8"/>
<path d="M25.5 16.7422L23.5052 18.1922L22.5026 16.6712L26.1 14.0764H27.479V26.3158H25.5V16.7422Z" fill="#1A73E8"/>
<path d="M31.0263 40L40.4999 30.5264L35.7631 28.4212L31.0263 30.5264L28.9211 35.2632L31.0263 40Z" fill="#EA4335"/>
<path d="M7.86841 35.2632L9.97361 40H31.0262V30.5264H9.97361L7.86841 35.2632Z" fill="#34A853"/>
<path d="M3.6578 0C1.9132 0 0.5 1.4132 0.5 3.1578V30.5262L5.2368 32.6314L9.9736 30.5262V9.4736H31.0262L33.1314 4.7368L31.0264 0H3.6578Z" fill="#4285F4"/>
<path d="M0.5 30.5264V36.8422C0.5 38.587 1.9132 40 3.6578 40H9.9736V30.5264H0.5Z" fill="#188038"/>
<path d="M31.0264 9.47359V30.5262H40.5V9.47359L35.7632 7.36839L31.0264 9.47359Z" fill="#FBBC04"/>
<path d="M40.5 9.4736V3.1578C40.5 1.413 39.0868 0 37.3422 0H31.0264V9.4736H40.5Z" fill="#1967D2"/>
</g>
<defs>
<clipPath id="clip0_3695_4664">
<rect width="40" height="40" fill="white" transform="translate(0.5)"/>
</clipPath>
</defs>
</svg>
