<svg width="24" height="24" viewBox="0 0 24 24" fill="none" xmlns="http://www.w3.org/2000/svg">
<path fill-rule="evenodd" clip-rule="evenodd" d="M17.3853 3V4.54101H22V21.227H2V4.54101H6.61475V3H8.15576V4.54101H15.8442V3H17.3853ZM3.54101 19.6943H20.459V6.07374H17.3853V7.61475H15.8525V6.07374H8.15576V7.61475H6.61475V6.07374H3.54101V19.6943ZM8.15576 11.1691H6.61475V12.7101H8.15576V11.1691ZM11.2295 11.1691H9.68848V12.7101H11.2295V11.1691ZM12.7705 11.1691H14.3115V12.7101H12.7705V11.1691ZM17.3853 14.2428H15.8442V15.7838H17.3853V14.2428ZM6.61475 14.2428H8.15576V15.7838H6.61475V14.2428ZM11.2295 14.2428H9.68848V15.7838H11.2295V14.2428ZM12.7705 14.2428H14.3115V15.7838H12.7705V14.2428ZM17.3853 11.1691H15.8442V12.7101H17.3853V11.1691Z" fill="black"/>
</svg>
