<svg width="16" height="16" viewBox="0 0 16 16" fill="none" xmlns="http://www.w3.org/2000/svg">
<path d="M1.3335 5.58483C1.3335 5.35128 1.3335 5.23451 1.34324 5.13615C1.43723 4.18752 2.18767 3.43708 3.1363 3.34309C3.23466 3.33334 3.35773 3.33334 3.60389 3.33334C3.69873 3.33334 3.74616 3.33334 3.78642 3.33091C4.30057 3.29977 4.7508 2.97526 4.94293 2.49734C4.95797 2.45992 4.97204 2.41772 5.00016 2.33334C5.02829 2.24896 5.04235 2.20677 5.0574 2.16934C5.24953 1.69143 5.69976 1.36692 6.21391 1.33578C6.25417 1.33334 6.29864 1.33334 6.38759 1.33334H9.61274C9.70168 1.33334 9.74616 1.33334 9.78642 1.33578C10.3006 1.36692 10.7508 1.69143 10.9429 2.16934C10.958 2.20677 10.972 2.24896 11.0002 2.33334C11.0283 2.41772 11.0424 2.45992 11.0574 2.49734C11.2495 2.97526 11.6998 3.29977 12.2139 3.33091C12.2542 3.33334 12.3016 3.33334 12.3964 3.33334C12.6426 3.33334 12.7657 3.33334 12.864 3.34309C13.8127 3.43708 14.5631 4.18752 14.6571 5.13615C14.6668 5.23451 14.6668 5.35128 14.6668 5.58483V10.8C14.6668 11.9201 14.6668 12.4802 14.4488 12.908C14.2571 13.2843 13.9511 13.5903 13.5748 13.782C13.147 14 12.5869 14 11.4668 14H4.5335C3.41339 14 2.85334 14 2.42552 13.782C2.04919 13.5903 1.74323 13.2843 1.55148 12.908C1.3335 12.4802 1.3335 11.9201 1.3335 10.8V5.58483Z" stroke="#1F2529" stroke-linecap="round" stroke-linejoin="round"/>
<path d="M8.00016 11C9.47292 11 10.6668 9.8061 10.6668 8.33334C10.6668 6.86058 9.47292 5.66668 8.00016 5.66668C6.5274 5.66668 5.3335 6.86058 5.3335 8.33334C5.3335 9.8061 6.5274 11 8.00016 11Z" stroke="#1F2529" stroke-linecap="round" stroke-linejoin="round"/>
</svg>
