<svg width="13" height="13" viewBox="0 0 13 13" fill="none" xmlns="http://www.w3.org/2000/svg">
<g clip-path="url(#clip0_3668_6488)">
<path d="M1.06567 4.8616C1.06567 4.68644 1.06567 4.59886 1.07298 4.52509C1.14347 3.81362 1.70631 3.25079 2.41778 3.1803C2.49155 3.17299 2.58385 3.17299 2.76847 3.17299C2.8396 3.17299 2.87517 3.17299 2.90537 3.17116C3.29098 3.14781 3.62865 2.90443 3.77275 2.54599C3.78403 2.51792 3.79458 2.48627 3.81567 2.42299C3.83677 2.3597 3.84732 2.32806 3.8586 2.29999C4.0027 1.94155 4.34037 1.69817 4.72598 1.67482C4.75618 1.67299 4.78953 1.67299 4.85624 1.67299H7.2751C7.34181 1.67299 7.37517 1.67299 7.40537 1.67482C7.79098 1.69817 8.12865 1.94155 8.27275 2.29999C8.28403 2.32806 8.29458 2.3597 8.31567 2.42299C8.33677 2.48627 8.34732 2.51792 8.3586 2.54599C8.5027 2.90443 8.84037 3.14781 9.22598 3.17116C9.25618 3.17299 9.29175 3.17299 9.36288 3.17299C9.54749 3.17299 9.6398 3.17299 9.71357 3.1803C10.425 3.25079 10.9879 3.81362 11.0584 4.52509C11.0657 4.59886 11.0657 4.68644 11.0657 4.8616V8.77299C11.0657 9.61307 11.0657 10.0331 10.9022 10.354C10.7584 10.6362 10.5289 10.8657 10.2467 11.0095C9.92579 11.173 9.50575 11.173 8.66567 11.173H3.46567C2.6256 11.173 2.20556 11.173 1.88469 11.0095C1.60244 10.8657 1.37297 10.6362 1.22916 10.354C1.06567 10.0331 1.06567 9.61307 1.06567 8.77299V4.8616Z" stroke="#F9FBFC" stroke-linecap="round" stroke-linejoin="round"/>
<path d="M6.06567 8.92299C7.17024 8.92299 8.06567 8.02756 8.06567 6.92299C8.06567 5.81842 7.17024 4.92299 6.06567 4.92299C4.9611 4.92299 4.06567 5.81842 4.06567 6.92299C4.06567 8.02756 4.9611 8.92299 6.06567 8.92299Z" stroke="#F9FBFC" stroke-linecap="round" stroke-linejoin="round"/>
</g>
<defs>
<clipPath id="clip0_3668_6488">
<rect width="12" height="12" fill="white" transform="translate(0.0656738 0.672989)"/>
</clipPath>
</defs>
</svg>
