<svg width="24" height="22" viewBox="0 0 24 22" fill="none" xmlns="http://www.w3.org/2000/svg">
<path fill-rule="evenodd" clip-rule="evenodd" d="M0.544899 2.351C0.531932 2.37373 0.519995 2.3972 0.509162 2.42137C-0.149814 3.89125 -0.134472 5.86131 0.356111 7.93404C0.852362 10.0307 1.85899 12.3401 3.32189 14.5644C4.75269 16.7398 6.42422 18.5364 8.1025 19.8003C9.75178 21.0425 11.4826 21.8256 13.0398 21.8532C13.4877 21.8914 13.9529 21.7812 14.3557 21.5077L15.9325 20.4373C16.879 19.7947 17.1317 18.496 16.5012 17.5374L14.0888 13.8694C13.4583 12.9108 12.1806 12.6511 11.2341 13.2936L9.05205 14.775C8.26968 14.1857 7.45584 13.3206 6.74531 12.2403C6.03665 11.1628 5.56198 10.0707 5.32483 9.11257L7.50698 7.63114C8.45346 6.98859 8.7062 5.68988 8.07571 4.73124L5.66657 1.06824C5.03608 0.1096 3.75838 -0.150106 2.81189 0.492448L1.23517 1.56286C0.932854 1.7681 0.699921 2.04216 0.544899 2.351ZM13.1665 20.2457C13.2718 20.2568 13.3796 20.2324 13.4746 20.1679L15.0513 19.0975C15.2659 18.9518 15.3254 18.6552 15.1801 18.4343L12.7677 14.7663C12.6223 14.5453 12.3299 14.4877 12.1153 14.6334L9.53339 16.3862C9.2726 16.5914 8.90983 16.6135 8.62526 16.4323C7.49866 15.7151 6.36354 14.5654 5.4242 13.1371C4.48641 11.7113 3.87576 10.2085 3.65371 8.8783C3.5964 8.53498 3.76275 8.19594 4.06026 8.03306L6.6258 6.29135C6.84039 6.14567 6.89994 5.84912 6.7546 5.62813L4.34546 1.96513C4.20012 1.74414 3.90765 1.68656 3.69307 1.83224L2.11634 2.90265C2.04151 2.95346 1.9871 3.02048 1.95241 3.09599C1.94663 3.10856 1.94056 3.12091 1.93422 3.13306C1.5039 4.13539 1.45458 5.67203 1.90021 7.55484C2.34716 9.44323 3.2697 11.5794 4.64301 13.6675C5.98587 15.7092 7.53574 17.3644 9.05 18.5049C10.5813 19.6582 12.0009 20.2299 13.093 20.2415C13.1176 20.2417 13.1421 20.2431 13.1665 20.2457ZM9.9019 4.19076H8.60352V12.7232H24.0002V4.19076H22.527L22.5132 4.19069L22.4993 4.19076H9.9296L9.91575 4.19069L9.9019 4.19076ZM22.5132 10.0568L22.5305 10.0569V6.85698L22.5132 6.8571C21.8418 6.8571 21.2881 6.34479 21.2103 5.68395H11.2186C11.147 6.29234 10.672 6.77484 10.0732 6.8476V10.0663C10.6721 10.139 11.147 10.6216 11.2186 11.23H21.2103C21.2881 10.5691 21.8417 10.0568 22.5132 10.0568ZM16.3018 6.32375C17.4614 6.32375 18.4014 7.27878 18.4014 8.45686C18.4014 9.63494 17.4614 10.59 16.3018 10.59C15.1423 10.59 14.2023 9.63494 14.2023 8.45686C14.2023 7.27878 15.1423 6.32375 16.3018 6.32375ZM16.3018 7.70544C16.7103 7.70544 17.0414 8.04186 17.0414 8.45686C17.0414 8.87186 16.7103 9.20828 16.3018 9.20828C15.8934 9.20828 15.5622 8.87186 15.5622 8.45686C15.5622 8.04186 15.8934 7.70544 16.3018 7.70544ZM20.7926 7.39039H19.5095V8.69396H20.7926V7.39039ZM11.8112 7.39043H13.0943V8.69399H11.8112V7.39043Z" fill="black"/>
</svg>
