<svg width="452" height="386" viewBox="0 0 452 386" fill="none" xmlns="http://www.w3.org/2000/svg">
<path d="M229.009 379.411C333.78 379.411 418.714 294.477 418.714 189.705C418.714 84.934 333.78 0 229.009 0C124.237 0 39.3032 84.934 39.3032 189.705C39.3032 294.477 124.237 379.411 229.009 379.411Z" fill="#F0F4F7"/>
<path d="M371.432 190.424C367.264 191.861 363.24 193.442 359.216 195.023C357.491 195.742 355.766 196.46 354.042 197.179C353.754 197.322 353.323 197.466 352.748 197.754C346.138 200.628 339.67 203.646 333.203 206.808C319.55 213.562 306.328 221.036 293.394 228.94C267.094 245.036 242.374 263.432 217.224 281.109C192.361 298.499 170.516 296.199 140.911 304.247C128.407 307.553 111.449 328.248 99.0894 327.817C133.006 359.722 178.708 379.411 229.009 379.411C333.778 379.411 418.714 294.475 418.714 189.705C418.714 185.538 418.57 181.37 418.283 177.346C402.331 180.508 386.665 184.819 371.432 190.424Z" fill="white"/>
<path d="M268.099 384.441C269.105 385.878 271.261 385.878 272.267 384.441C280.459 371.506 290.519 358.572 305.322 356.416C310.064 355.698 314.951 356.272 319.837 355.985C330.616 355.266 340.389 349.805 349.874 344.631C373.3 331.697 396.582 318.906 420.007 305.972C408.366 295.049 396.15 284.846 383.36 275.217C380.773 273.348 355.766 286.283 352.03 287.864C332.772 295.912 313.945 304.535 295.693 314.738C284.052 321.206 270.83 318.906 260.626 327.96C253.728 334.14 246.398 339.745 238.781 344.919C240.937 349.805 261.776 374.812 268.099 384.441Z" fill="#F7E4E0"/>
<path d="M337.658 211.407C336.508 208.676 335.79 205.945 335.646 203.071C335.646 202.784 335.646 202.496 335.502 202.352C335.359 202.209 335.215 201.634 334.784 200.628C334.209 198.616 333.778 196.604 333.203 194.592C331.191 186.113 328.892 177.633 326.592 169.154C321.849 151.477 319.263 133.512 314.951 115.835C314.232 112.674 314.089 109.655 314.376 106.637L313.514 103.619L312.508 103.907L218.23 59.4985C209.032 55.1871 198.397 57.0554 191.068 64.3849L100.095 154.351L98.6582 154.639L98.9456 155.501L99.6642 157.8C101.389 159.238 102.97 160.962 104.407 162.83C120.359 183.526 128.551 209.107 136.599 233.683C138.611 239.719 140.48 245.755 142.635 251.791C143.641 254.809 144.791 257.683 145.941 260.557C146.372 261.563 146.659 262.57 147.091 263.576C147.234 264.007 147.665 264.725 147.953 265.444C150.252 270.618 152.983 275.791 155.857 280.678C157.438 283.265 159.163 285.708 160.887 288.151C161.031 288.295 161.175 288.582 161.462 288.726C162.037 289.301 162.468 289.876 163.043 290.45L332.628 235.263C339.239 233.251 343.982 228.221 345.85 222.042C341.97 219.742 339.239 215.718 337.658 211.407Z" fill="#5693E3"/>
<path d="M272.554 249.204C279.74 240.294 288.651 233.395 296.699 225.491C297.561 224.629 298.567 223.622 299.429 222.616C299.573 222.473 300.292 221.61 300.867 221.036C301.298 220.461 302.016 219.455 302.304 219.311C303.022 218.161 303.741 217.155 304.316 216.006C304.46 215.718 304.891 214.856 305.178 214.137C305.322 213.419 305.609 212.7 305.609 212.556C305.897 211.55 306.04 210.688 306.184 209.682C306.184 209.538 306.184 209.538 306.184 209.395C306.184 208.82 306.328 207.957 306.472 207.383C306.615 205.371 306.759 203.502 306.903 201.49C307.19 196.891 307.046 192.292 306.759 187.693C306.759 187.406 306.759 187.119 306.759 186.975C306.759 186.831 306.615 186.544 306.615 186.4C306.328 185.394 306.04 184.388 305.753 183.382C297.849 178.496 294.83 168.723 295.98 159.812H101.532C102.538 160.819 103.401 161.825 104.263 162.974C120.215 183.669 128.407 209.251 136.455 233.826C138.467 239.862 140.336 245.898 142.491 251.935C143.497 254.953 144.647 257.827 145.797 260.701C146.228 261.707 146.515 262.713 146.947 263.719C147.09 264.15 147.521 264.869 147.809 265.588C150.108 270.761 152.839 275.935 155.713 280.822C157.294 283.408 159.019 285.852 160.743 288.295C160.887 288.439 161.031 288.726 161.318 288.87C161.893 289.445 162.324 290.019 162.899 290.594L268.243 256.39C269.393 253.803 270.83 251.36 272.554 249.204Z" fill="#146DC7"/>
<path opacity="0.5" d="M259.908 177.633C258.327 176.915 256.746 176.052 255.309 174.903C254.303 174.184 253.297 173.322 252.147 173.178C250.566 173.034 249.273 174.184 247.836 175.046C247.692 175.19 247.405 175.334 247.261 175.477C244.099 177.489 240.075 177.202 237.201 175.046C236.051 174.184 235.045 173.178 233.895 172.747C231.883 172.172 225.703 175.19 222.829 177.633H259.908Z" fill="#C4DEF5"/>
<path d="M337.371 265.157L170.66 320.918C158.013 325.086 144.647 317.613 140.767 304.247L98.6582 154.639L229.584 222.76C240.65 228.509 254.015 223.91 259.764 212.556L313.945 104.482L352.892 233.826C356.772 246.905 349.874 260.989 337.371 265.157Z" fill="#EFD58B"/>
<path opacity="0.5" d="M223.116 200.628C220.961 199.478 218.805 198.472 216.649 197.466C215.787 197.035 214.781 196.748 213.775 196.748C212.913 196.748 212.05 197.179 211.188 197.466C208.745 198.472 206.445 199.766 203.858 200.628H223.116Z" fill="#C4DEF5"/>
<path d="M352.749 233.826L313.801 104.482L259.621 212.556C249.417 233.683 162.899 315.888 153.702 319.769C158.875 322.212 164.912 322.93 170.66 320.918L337.371 265.157C349.874 260.989 356.773 246.905 352.749 233.826Z" fill="#F9F0D3"/>
<path d="M381.348 139.117C383.934 136.243 384.222 131.644 382.21 128.482C380.198 125.177 376.03 123.74 372.437 124.889C369.275 125.895 366.832 128.913 363.527 129.057C359.646 129.345 356.485 125.752 352.604 124.889C349.011 124.027 344.844 126.47 342.975 129.488C340.82 132.794 342.257 136.243 340.82 139.692C339.957 141.992 337.658 143.429 335.215 144.147C332.915 144.866 330.328 144.866 328.029 145.441C321.562 146.734 315.813 151.333 313.514 157.513C311.645 162.399 312.076 170.878 314.52 175.477C314.52 175.477 320.124 176.196 324.867 177.633C329.179 178.783 332.915 181.37 335.933 184.532C336.652 185.394 342.688 195.454 341.826 195.598C341.969 195.598 342.113 195.598 342.113 195.598C345.275 194.879 348.437 192.723 349.155 189.418C349.874 186.687 348.868 183.669 350.305 181.226C352.604 177.346 358.209 178.927 362.664 178.639C362.808 178.639 362.808 178.639 362.952 178.639C369.132 178.064 374.162 171.741 373.443 165.417C372.868 159.094 367.551 152.77 370.569 147.309C373.012 143.141 378.33 142.423 381.348 139.117Z" fill="#78BFB1"/>
<path d="M314.52 175.334C329.898 177.633 332.916 181.37 335.071 183.526C340.964 160.244 352.749 102.757 339.239 60.0734L329.035 59.4985C329.754 67.8341 343.551 114.542 322.568 161.968L314.52 175.334Z" fill="#EBAEA2"/>
<path d="M343.694 78.3254C342.688 72.2893 341.251 66.1095 339.239 60.0734L329.035 59.4985C329.179 61.9417 330.616 67.8341 331.766 75.8822C335.934 76.457 339.814 77.4631 343.694 78.3254Z" fill="#E09383"/>
<path d="M330.185 180.076C333.49 182.088 336.077 184.819 337.946 187.837C346.856 182.376 354.042 162.83 352.748 153.201C336.796 156.938 325.874 171.31 325.011 177.489C327.886 178.064 327.742 178.495 330.185 180.076Z" fill="#D5F0EB"/>
<path d="M163.474 115.117C158.3 115.117 153.414 116.266 149.102 118.278C144.072 111.524 135.162 107.069 124.814 107.069C110.443 107.069 98.5143 115.548 96.646 127.62H138.467H153.126H188.624C183.738 120.003 174.253 115.117 163.474 115.117Z" fill="white"/>
<path d="M42.1777 212.7C50.9444 212.7 59.1362 215.287 66.0346 220.03C74.3701 204.221 89.4603 193.729 106.563 193.729C130.563 193.729 150.54 213.706 153.701 241.874H83.9991H59.5673H0.5C8.40439 224.054 24.0694 212.7 42.1777 212.7Z" fill="#F7E4E0"/>
<path d="M200.84 159.381C197.535 154.208 190.636 150.615 182.876 150.615C174.971 150.615 168.217 154.208 164.911 159.381H200.84Z" fill="#C4DEF5"/>
<path d="M258.758 104.769C254.734 97.4396 246.254 92.4095 236.625 92.4095C226.996 92.4095 218.517 97.4396 214.493 104.769H258.758Z" fill="#C4DEF5"/>
<path d="M280.89 104.769C278.591 102.614 275.572 101.32 272.267 101.32C268.962 101.32 265.944 102.614 263.644 104.769H280.89Z" fill="#C4DEF5"/>
<path d="M137.749 276.366C131.713 265.587 119.497 258.114 105.269 258.114C91.041 258.114 78.6814 265.587 72.7891 276.366H137.749Z" fill="#EBAEA2"/>
<path d="M170.229 276.366C166.923 273.204 162.468 271.336 157.582 271.336C152.695 271.336 148.384 273.204 144.935 276.366H170.229Z" fill="#EBAEA2"/>
<path d="M330.185 180.076C331.335 180.795 332.341 181.657 333.347 182.376C333.203 179.645 333.059 177.633 333.059 177.633L330.041 174.903L332.915 173.322C332.915 173.322 332.053 168.292 331.047 159.956C326.017 164.411 321.849 170.016 320.843 176.34C323.718 176.915 327.598 178.496 330.185 180.076Z" fill="#2DB295"/>
<path d="M297.417 12.3597C312.22 25.2941 321.562 45.8456 337.083 57.774C340.82 60.6483 338.808 52.3128 341.826 49.4385C346.856 44.6958 340.245 33.486 336.652 28.887C331.766 22.7073 314.807 8.76678 297.417 12.3597Z" fill="#D5F0EB"/>
<path d="M371.431 41.534C381.06 42.54 387.24 44.1209 392.126 49.8695C375.599 51.0192 357.06 58.2051 340.676 59.3548C336.796 59.6422 336.221 55.7619 335.646 53.175C334.64 48.8635 344.269 45.1269 348.868 43.8334C356.341 41.6777 364.245 40.8154 371.431 41.534Z" fill="#D5F0EB"/>
<path d="M291.094 32.7675C277.728 33.6297 265.081 39.9533 256.171 50.0134C277.585 54.0375 298.998 58.2052 320.556 62.2293C325.586 63.2353 340.101 61.5107 340.82 59.2112C342.975 52.4566 330.041 43.6899 324.436 40.6718C315.238 35.7855 300.867 32.0489 291.094 32.7675Z" fill="#78BFB1"/>
<path d="M340.82 56.1931C338.664 49.5821 329.466 49.151 325.011 49.7258C317.538 50.5881 310.496 53.7499 304.891 58.6363C297.274 65.2472 292.1 75.0199 290.95 85.6549C302.879 80.05 310.496 77.0319 310.496 77.0319L309.777 71.8582L316.244 73.7265C316.244 73.439 342.257 60.5046 340.82 56.1931Z" fill="#78BFB1"/>
<path d="M361.084 67.2592C360.509 66.3969 359.934 65.5346 359.216 64.6723C359.072 64.6723 359.072 64.6723 358.928 64.6723C357.347 64.0974 355.623 63.81 354.042 62.9477C352.605 62.2291 351.311 61.0794 349.874 60.0734C347.575 58.3488 344.988 56.9116 341.97 56.4805C340.533 56.3368 339.095 56.3368 337.658 56.9116C337.371 57.0553 337.083 57.1991 336.796 57.3428C336.796 57.3428 336.508 57.4865 336.508 57.6302C336.365 57.7739 336.365 57.9176 336.365 58.0614C336.652 60.0734 338.52 61.9417 339.958 63.3788C341.107 64.5286 340.533 65.9657 339.527 66.6843C343.694 71.427 348.724 76.3133 348.724 76.3133H354.042L352.317 80.1936C352.317 80.1936 357.347 84.2177 364.964 91.2598C366.976 82.6368 365.395 74.0139 361.084 67.2592Z" fill="#1D6B5B"/>
<path d="M359.503 64.9598C356.485 61.0795 352.461 57.9177 348.006 55.9057C344.7 54.4685 337.658 52.7439 334.496 57.1991C333.49 58.6363 336.652 62.804 340.101 66.8281C346.568 66.1095 353.036 65.3909 359.503 64.9598Z" fill="#2DB295"/>
<path d="M366.257 223.335C361.371 238.713 380.917 245.036 385.947 254.521C393.564 268.606 387.959 271.48 396.007 285.708C404.486 300.511 427.337 300.079 438.834 290.451C451.769 279.816 456.368 261.707 446.595 247.048C438.834 235.551 424.319 228.221 410.666 227.072C389.683 225.203 391.983 219.024 384.941 215.862C385.084 215.862 370.425 210.113 366.257 223.335Z" fill="#202529"/>
<path d="M338.952 225.634C338.089 225.491 337.515 225.491 336.94 225.778C336.077 226.353 335.79 227.359 335.79 227.503C335.215 230.233 334.353 233.539 333.634 236.701C333.922 236.701 334.353 236.844 334.64 236.844C335.79 232.102 336.796 227.646 336.796 227.646C336.796 227.646 336.94 226.928 337.515 226.497C337.802 226.353 338.089 226.353 338.664 226.353L343.551 228.365C343.694 228.078 343.838 227.79 343.982 227.646L338.952 225.634Z" fill="#D3654E"/>
<path d="M330.041 234.832C331.549 234.832 332.772 233.61 332.772 232.102C332.772 230.594 331.549 229.371 330.041 229.371C328.533 229.371 327.311 230.594 327.311 232.102C327.311 233.61 328.533 234.832 330.041 234.832Z" fill="#F6C648"/>
<path d="M337.083 232.245L335.79 244.749L330.329 244.605L329.897 232.102L337.083 232.245Z" fill="white"/>
<path d="M413.541 271.767C413.541 271.336 413.397 270.761 413.109 270.33C411.241 267.6 405.78 260.701 402.331 256.102C398.738 251.503 395.576 246.617 391.839 242.449C391.265 241.874 390.69 241.299 390.115 241.012C389.684 240.868 389.109 240.725 388.678 240.725C387.384 240.437 386.234 240.293 384.51 239.431C379.624 237.132 379.767 230.664 379.767 226.066C379.767 225.06 379.911 221.035 377.037 221.035C375.456 220.892 374.593 223.191 374.306 224.916C373.587 229.227 373.587 233.826 371.719 237.85C370.857 239.719 369.42 241.443 367.839 243.024C361.803 249.204 356.341 256.246 351.168 263.144C350.305 264.294 349.587 265.444 348.437 266.306C347.575 265.444 346.569 264.581 345.706 263.719C343.407 260.557 341.108 257.252 338.808 254.09C337.227 251.791 335.503 249.491 333.922 247.192C333.347 246.473 332.772 245.611 332.197 244.892C331.335 243.743 331.191 243.599 331.479 242.162C332.053 242.449 333.059 242.737 333.634 242.305C333.778 242.162 334.353 240.006 334.353 240.006C333.634 239.719 333.059 239.431 332.341 239.144C333.203 239.144 334.065 238.569 334.353 237.707C333.347 237.994 332.197 238.138 331.047 237.994C330.76 237.994 330.473 237.85 330.329 237.994C329.898 238.138 329.467 240.006 329.179 240.437C329.035 240.725 328.892 240.868 328.892 241.156C328.892 241.443 328.892 241.731 329.035 242.018C330.041 245.036 331.047 248.054 332.341 250.928C334.64 256.246 337.084 261.42 339.958 266.45C340.82 268.031 341.826 269.612 342.832 270.905C343.982 272.63 346.713 276.797 349.443 275.935C350.305 275.648 351.024 274.929 351.743 274.21C355.048 270.761 358.066 267.025 361.228 263.432C362.809 261.563 364.39 259.408 366.114 257.683C366.114 257.683 367.264 260.557 367.408 260.989C367.839 262.138 367.983 263.288 368.126 264.438C368.414 266.45 368.414 268.606 368.557 270.618C368.845 274.785 368.414 279.672 365.539 282.833C364.533 283.983 363.096 284.845 361.659 285.277C360.222 285.851 358.497 286.139 356.916 286.426C355.767 286.57 354.761 286.714 353.755 287.001C347.719 288.151 341.682 288.87 335.646 289.588C332.053 290.019 328.317 290.45 324.724 291.025C318.113 292.031 313.514 295.48 309.49 299.792C308.771 300.511 308.053 301.373 307.478 302.091C306.903 302.81 306.185 303.529 305.61 304.391C305.179 304.966 304.747 305.397 304.316 305.972C303.023 307.553 301.729 309.277 300.292 310.858C300.148 311.146 299.861 311.289 299.717 311.577C288.651 324.511 278.447 338.452 267.669 351.673C266.806 352.679 266.231 354.404 267.381 354.979C268.1 355.266 268.818 354.835 269.393 354.548C280.028 347.506 288.795 338.164 297.562 329.11C300.867 325.661 304.029 322.068 307.191 318.762C307.909 318.044 308.628 317.325 309.203 316.75C309.346 316.607 309.49 316.463 309.777 316.319C310.065 316.032 310.352 315.744 310.64 315.457C310.927 315.17 311.215 315.026 311.502 314.738C311.933 314.451 312.221 314.02 312.652 313.732C312.939 313.445 313.37 313.158 313.658 312.87C313.945 312.726 314.089 312.439 314.376 312.295C314.808 312.008 315.239 311.72 315.814 311.289C316.101 311.146 316.245 311.002 316.532 310.858C316.963 310.571 317.538 310.283 317.969 309.996C318.113 309.852 318.4 309.708 318.688 309.708C319.263 309.421 319.838 309.134 320.556 308.846C320.7 308.846 320.7 308.702 320.844 308.702C321.418 308.415 321.993 308.271 322.712 307.984C322.856 307.984 323.143 307.84 323.287 307.84C324.005 307.553 324.724 307.409 325.442 307.265C325.442 307.265 325.442 307.265 325.586 307.265C326.305 307.121 327.023 306.978 327.886 306.834C328.029 306.834 328.317 306.834 328.461 306.69C329.323 306.547 330.041 306.547 330.904 306.403C341.97 305.828 356.054 306.834 367.982 304.391C368.845 304.247 369.563 304.103 370.282 303.816C372.581 303.241 374.737 302.379 376.893 301.517C377.611 301.229 378.186 300.798 378.761 300.511C378.761 300.511 378.761 300.511 378.905 300.511C379.48 300.223 379.911 299.792 380.486 299.361C380.486 299.361 380.63 299.361 380.63 299.217C381.061 298.786 381.492 298.355 381.923 297.924L382.067 297.78C382.498 297.349 382.785 296.918 383.073 296.343L383.216 296.199C383.504 295.768 383.791 295.193 383.935 294.762C383.935 294.762 383.935 294.618 384.079 294.618C384.366 294.187 384.51 293.612 384.654 293.037C384.654 292.894 384.654 292.894 384.797 292.75C384.941 292.175 385.085 291.744 385.228 291.169C385.228 291.025 385.228 291.025 385.228 290.882C385.372 290.307 385.372 289.732 385.516 289.157C385.516 289.013 385.516 289.013 385.516 288.87C385.516 288.295 385.66 287.72 385.66 287.145C385.66 287.001 385.66 287.001 385.66 286.858C385.66 286.283 385.66 285.708 385.66 285.133C385.66 284.989 385.66 284.989 385.66 284.845C385.66 284.271 385.66 283.696 385.66 283.121C385.66 282.977 385.66 282.977 385.66 282.833C385.66 282.259 385.66 281.684 385.66 281.109C385.66 280.965 385.66 280.965 385.66 280.821C385.66 280.247 385.66 279.672 385.516 279.097C385.516 278.953 385.516 278.953 385.516 278.809C385.516 278.235 385.372 277.66 385.372 277.229C385.228 275.935 385.228 274.498 385.085 273.204C385.085 273.204 385.085 273.204 385.228 273.204C385.228 267.025 387.815 261.132 390.402 255.671C390.402 255.527 390.546 255.384 390.69 255.24C395.432 260.126 400.031 264.869 404.486 270.186C405.349 271.192 406.211 272.63 407.217 273.779C406.786 274.642 406.355 275.504 405.924 276.51C405.492 277.516 404.918 278.378 404.486 279.384C400.031 287.72 394.139 296.343 388.965 303.241C388.821 303.385 389.252 303.816 389.396 303.96C389.827 304.247 389.971 304.535 390.259 304.822C390.259 304.966 390.402 304.966 390.402 304.966C390.546 304.966 390.546 304.966 390.546 304.966C391.696 303.96 392.702 302.666 393.564 301.66C394.57 300.511 395.72 299.361 396.582 298.211C399.169 295.193 401.756 292.175 404.199 289.013C406.211 286.57 408.367 283.983 410.091 281.253C410.091 281.253 410.235 281.109 410.235 280.965C410.666 280.39 411.097 279.815 411.385 279.097C411.816 278.378 412.247 277.803 412.535 277.085C412.966 276.079 414.115 273.779 414.115 272.342C413.54 271.911 413.541 271.911 413.541 271.767Z" fill="#EBAEA2"/>
<path d="M375.168 222.617C374.306 227.215 374.162 232.964 376.893 236.988C379.192 240.581 382.21 240.725 385.085 239.719C384.797 239.575 384.51 239.575 384.222 239.431C379.336 237.132 379.48 230.665 379.48 226.066C379.48 225.06 379.623 221.036 376.749 221.036C376.03 221.036 375.599 221.323 375.168 221.898C375.312 222.185 375.312 222.473 375.168 222.617Z" fill="#E09383"/>
<path d="M377.755 291.888C377.755 291.888 376.318 287.864 376.749 288.151C375.312 286.283 371.287 282.69 369.85 282.977C367.982 283.265 366.401 283.265 364.82 283.121C363.814 284.127 362.664 284.846 361.227 285.277C359.79 285.852 358.066 286.139 356.485 286.426C355.335 286.57 354.329 286.714 353.323 287.001C347.287 288.151 341.251 288.87 335.215 289.588C331.622 290.019 327.885 290.45 324.292 291.025C317.681 292.031 313.082 295.481 309.058 299.792C308.34 300.511 307.621 301.373 307.046 302.091C306.471 302.81 305.753 303.529 305.178 304.391C304.747 304.966 304.316 305.397 303.885 305.972C302.591 307.553 301.298 309.277 299.861 310.858C299.717 311.146 299.429 311.289 299.286 311.577C288.22 324.511 278.016 338.452 267.237 351.674C266.375 352.68 265.8 354.404 266.95 354.979C267.668 355.266 268.387 354.835 268.962 354.548C279.597 347.506 288.363 338.164 297.13 329.11C300.435 325.661 303.597 322.068 306.759 318.763C307.477 318.044 308.196 317.325 308.771 316.751C308.915 316.607 309.058 316.463 309.346 316.319C309.633 316.032 309.921 315.745 310.208 315.457C310.495 315.17 310.783 315.026 311.07 314.738C311.502 314.451 311.789 314.02 312.22 313.732C312.508 313.445 312.939 313.158 313.226 312.87C313.514 312.726 313.657 312.439 313.945 312.295C314.376 312.008 314.807 311.72 315.382 311.289C315.669 311.146 315.813 311.002 316.1 310.858C316.532 310.571 317.106 310.283 317.538 309.996C317.681 309.852 317.969 309.708 318.256 309.708C318.831 309.421 319.406 309.134 320.125 308.846C320.268 308.846 320.268 308.702 320.412 308.702C320.987 308.415 321.562 308.271 322.28 307.984C322.424 307.984 322.711 307.84 322.855 307.84C323.574 307.553 324.292 307.409 325.011 307.265C325.011 307.265 325.011 307.265 325.155 307.265C325.873 307.122 326.592 306.978 327.454 306.834C327.598 306.834 327.885 306.834 328.029 306.69C328.891 306.547 329.61 306.547 330.472 306.403C341.538 305.828 355.622 306.834 367.551 304.391C368.413 304.247 369.132 304.103 369.85 303.816C372.15 303.241 374.305 302.379 376.461 301.517C377.18 301.229 377.755 300.798 378.33 300.511C378.33 300.511 378.33 300.511 378.473 300.511C379.048 300.223 379.479 299.792 380.054 299.361C380.054 299.361 380.198 299.361 380.198 299.217C380.485 298.93 380.629 298.786 380.916 298.499C379.336 296.199 378.473 294.043 377.755 291.888Z" fill="#EBAEA2"/>
<path d="M372.15 290.019C371.719 289.732 371.288 289.444 370.713 289.301C368.413 288.582 365.97 288.726 363.527 289.013C363.527 289.013 326.879 298.93 320.7 301.229C314.52 303.529 267.093 351.242 270.83 350.524C274.423 346.931 293.537 332.272 296.986 328.679C300.292 325.23 308.053 317.038 308.771 316.319C308.915 316.176 309.059 316.032 309.346 315.888C309.633 315.601 309.921 315.313 310.208 315.026C310.496 314.739 310.783 314.595 311.071 314.307C311.502 314.02 311.789 313.589 312.22 313.301C312.508 313.014 312.939 312.726 313.226 312.439C313.514 312.295 313.657 312.008 313.945 311.864C314.376 311.577 314.807 311.289 315.382 310.858C315.669 310.714 315.813 310.571 316.101 310.427C316.532 310.14 317.107 309.852 317.538 309.565C317.682 309.421 317.969 309.277 318.256 309.277C318.831 308.99 319.406 308.702 320.125 308.415C320.268 308.415 320.268 308.271 320.412 308.271C320.987 307.984 321.562 307.84 322.28 307.553C322.424 307.553 322.712 307.409 322.855 307.409C323.574 307.122 324.292 306.978 325.011 306.834C325.011 306.834 325.011 306.834 325.155 306.834C325.873 306.69 326.592 306.547 327.454 306.403C327.598 306.403 327.885 306.403 328.029 306.259C328.891 306.116 329.61 306.116 330.472 305.972C341.538 305.397 355.623 306.403 367.551 303.96C368.413 303.816 369.132 303.672 369.85 303.385C372.15 302.81 374.306 301.948 376.461 301.085C376.605 301.085 376.749 300.942 376.893 300.942C374.881 301.948 375.455 296.774 375.455 295.912C375.024 293.612 374.162 291.313 372.15 290.019Z" fill="#E09383"/>
<path d="M384.797 282.69C384.797 282.115 384.797 281.54 384.797 280.965C384.797 280.821 384.797 280.821 384.797 280.678C384.797 280.103 384.797 279.528 384.653 278.953C384.653 278.809 384.653 278.809 384.653 278.666C384.653 278.091 384.509 277.516 384.509 277.085C384.366 275.791 384.366 274.354 384.222 273.061C384.222 273.061 384.222 273.061 384.366 273.061C384.366 266.881 386.953 260.989 389.54 255.527C386.521 251.072 385.803 245.467 388.821 240.868C388.677 240.868 388.677 240.868 388.533 240.868C387.527 240.581 386.378 240.437 385.084 239.862C385.084 240.006 384.941 240.15 384.941 240.293C384.366 241.587 383.935 242.88 383.647 244.318C383.216 245.755 382.497 247.479 381.204 248.342C379.911 249.348 378.042 249.348 376.605 250.066C375.455 250.641 373.874 252.222 373.731 253.515C373.874 250.785 371.288 249.922 369.419 248.629C368.701 248.054 368.27 247.192 368.126 246.33C367.982 245.18 368.988 243.168 368.701 242.018C368.557 242.162 367.695 243.024 367.551 243.168C367.12 243.599 366.689 244.174 366.257 244.605C366.545 247.192 365.97 249.635 365.395 252.078C365.108 253.228 365.108 254.234 365.108 255.384C365.251 256.821 365.683 257.971 366.257 259.264C366.832 260.414 367.264 261.707 367.407 263.001C367.838 265.444 367.838 267.887 367.982 270.474C368.27 274.642 367.838 279.528 364.964 282.69C363.958 283.839 362.521 284.702 361.084 285.133C359.647 285.708 357.922 285.995 356.341 286.283C355.191 286.426 354.185 286.57 353.179 286.858C352.03 287.001 351.024 287.289 349.874 287.432C353.754 293.181 353.179 301.804 347.862 305.684C354.473 305.541 361.084 305.253 367.264 303.96C368.126 303.816 368.844 303.672 369.563 303.385C371.862 302.81 374.018 301.948 376.174 301.085C376.893 300.798 377.467 300.367 378.042 300.079C378.042 300.079 378.042 300.079 378.186 300.079C378.761 299.792 379.192 299.361 379.767 298.93C379.767 298.93 379.911 298.93 379.911 298.786C380.342 298.355 380.773 297.924 381.204 297.493L381.348 297.349C381.779 296.918 382.066 296.486 382.354 295.912L382.497 295.768C382.785 295.337 383.072 294.762 383.216 294.331C383.216 294.331 383.216 294.187 383.36 294.187C383.647 293.756 383.791 293.181 383.935 292.606C383.935 292.462 383.935 292.462 384.078 292.319C384.222 291.744 384.366 291.313 384.509 290.738C384.509 290.594 384.509 290.594 384.509 290.45C384.653 289.876 384.653 289.301 384.797 288.726C384.797 288.582 384.797 288.582 384.797 288.438C384.797 287.863 384.941 287.289 384.941 286.714C384.941 286.57 384.941 286.57 384.941 286.426C384.941 285.851 384.941 285.277 384.941 284.702C384.941 284.558 384.941 284.558 384.941 284.414C384.941 283.839 384.941 283.265 384.941 282.69C384.797 282.833 384.797 282.833 384.797 282.69Z" fill="#EBAEA2"/>
<path d="M384.797 254.665C384.078 256.533 383.647 258.402 383.216 260.414C382.066 266.162 382.497 272.198 384.509 277.66C384.509 277.372 384.509 277.085 384.509 276.797C384.366 275.504 384.366 274.067 384.222 272.773C384.222 272.773 384.222 272.773 384.366 272.773C384.366 266.594 387.24 260.27 389.827 254.809C388.677 253.084 387.527 251.503 387.096 249.491C387.096 249.635 385.228 253.515 384.797 254.665Z" fill="#E09383"/>
<path d="M367.551 263.001C367.551 263.432 367.695 263.719 367.695 264.15C368.701 264.725 369.851 265.013 371 265.3C372.581 265.588 374.306 265.731 376.031 265.731C377.755 265.731 379.48 265.588 381.204 265.444C382.067 265.3 382.785 265.156 383.647 264.869C383.935 264.725 384.366 264.725 384.653 264.582C384.797 264.582 385.085 264.438 385.228 264.438C385.372 264.438 385.66 264.294 385.372 264.294C385.516 264.294 385.659 264.15 385.659 264.15C386.665 261.132 387.959 258.114 389.396 255.24C386.378 250.785 385.659 245.18 388.678 240.581C388.534 240.581 388.534 240.581 388.39 240.581C387.384 240.294 386.234 240.15 384.941 239.575C384.941 239.719 384.797 239.862 384.797 240.006C384.222 241.3 383.791 242.593 383.504 244.03C383.073 245.467 382.354 247.192 381.061 248.054C379.767 249.06 377.899 249.06 376.462 249.779C375.312 250.354 373.731 251.935 373.587 253.228C373.731 250.497 371.144 249.635 369.276 248.342C368.557 247.767 368.126 246.904 367.982 246.042C367.839 244.892 368.845 242.88 368.557 241.731C368.414 241.874 367.551 242.737 367.408 242.88C366.976 243.312 366.545 243.886 366.114 244.318C366.402 246.904 365.827 249.348 365.252 251.791C364.964 252.941 364.964 253.947 364.964 255.096C365.108 256.533 365.539 257.683 366.114 258.977C366.976 260.557 367.264 261.707 367.551 263.001Z" fill="#5693E3"/>
<path d="M384.797 282.69C384.797 282.115 384.797 281.54 384.797 280.965C384.797 280.821 384.797 280.821 384.797 280.678C384.797 280.103 384.797 279.528 384.653 278.953C384.653 278.809 384.653 278.809 384.653 278.666C384.653 278.091 384.51 277.516 384.51 277.085C384.366 275.791 384.366 274.354 384.222 273.061C384.222 273.061 384.222 273.061 384.366 273.061C384.366 272.773 384.366 272.486 384.366 272.055C381.779 273.204 378.761 273.492 376.174 273.492C373.587 273.492 370.569 272.917 368.27 271.624C368.413 275.504 367.839 279.959 365.252 282.977C364.246 284.127 362.808 284.989 361.371 285.42C359.934 285.995 358.21 286.283 356.629 286.57C355.479 286.714 354.473 286.857 353.467 287.145C352.317 287.289 351.311 287.576 350.161 287.72C354.042 293.468 353.467 302.091 348.149 305.972C354.76 305.828 361.371 305.541 367.551 304.247C368.413 304.103 369.132 303.96 369.851 303.672C372.15 303.097 374.306 302.235 376.461 301.373C377.18 301.085 377.755 300.654 378.33 300.367C378.33 300.367 378.33 300.367 378.473 300.367C379.048 300.079 379.48 299.648 380.054 299.217C380.054 299.217 380.198 299.217 380.198 299.073C380.629 298.642 381.06 298.211 381.492 297.78L381.635 297.636C382.066 297.205 382.354 296.774 382.641 296.199L382.785 296.055C383.072 295.624 383.36 295.049 383.504 294.618C383.504 294.618 383.504 294.474 383.647 294.474C383.935 294.043 384.078 293.468 384.222 292.894C384.222 292.75 384.222 292.75 384.366 292.606C384.51 292.031 384.653 291.6 384.797 291.025C384.797 290.882 384.797 290.881 384.797 290.738C384.941 290.163 384.941 289.588 385.084 289.013C385.084 288.869 385.084 288.869 385.084 288.726C385.084 288.151 385.228 287.576 385.228 287.001C385.228 286.857 385.228 286.857 385.228 286.714C385.228 286.139 385.228 285.564 385.228 284.989C385.228 284.845 385.228 284.845 385.228 284.702C385.228 284.127 385.228 283.552 385.228 282.977C384.797 282.833 384.797 282.833 384.797 282.69Z" fill="#5693E3"/>
<path d="M383.647 265.013C383.935 264.869 384.366 264.869 384.653 264.725C384.797 264.725 385.084 264.582 385.228 264.582C385.372 264.582 385.659 264.438 385.372 264.438C385.516 264.438 385.659 264.294 385.803 264.294C386.809 260.989 388.246 257.827 389.683 254.953C388.534 253.228 387.384 251.647 386.953 249.635C386.953 249.635 385.084 253.515 384.653 254.665C383.935 256.534 383.504 258.402 383.072 260.414C382.785 261.995 382.498 263.576 382.498 265.156C383.072 265.156 383.36 265.013 383.647 265.013Z" fill="#146DC7"/>
<path d="M384.222 272.917C384.222 272.917 384.366 272.917 384.222 272.917C384.366 272.63 384.366 272.199 384.366 271.911C383.935 272.055 383.503 272.199 383.072 272.342C383.36 274.067 383.791 275.935 384.509 277.66C384.509 277.372 384.509 277.085 384.509 276.798C384.366 275.504 384.366 274.211 384.222 272.917Z" fill="#146DC7"/>
<path d="M379.48 214.425C383.073 215.718 385.66 216.293 384.366 219.598C384.366 219.598 383.36 222.616 382.785 223.623C382.067 224.916 381.061 224.197 380.486 225.203C378.186 229.227 370.569 227.934 369.563 225.778C368.701 224.054 370.857 219.742 371.288 218.449C371.719 217.443 372.438 215.287 372.438 215.287C373.875 211.838 376.174 213.275 379.48 214.425Z" fill="#EBAEA2"/>
<path d="M372.294 215.862C372.438 215.431 372.581 215 372.581 215C373.875 211.694 376.174 213.131 379.623 214.281C383.216 215.574 385.803 216.149 384.51 219.455C384.51 219.455 383.935 221.61 383.216 222.76C381.492 218.449 371.863 217.443 372.294 215.862Z" fill="#E09383"/>
<path d="M375.025 207.814C376.605 208.82 378.474 210.401 379.911 212.413C380.917 211.981 382.067 212.125 383.216 212.556C385.803 213.419 386.953 216.58 385.947 219.167C385.66 220.03 384.654 221.467 383.791 221.898C383.791 221.898 378.617 211.694 373.3 213.993C372.438 214.281 367.839 211.407 368.845 208.963C369.42 206.52 372.581 206.52 375.025 207.814Z" fill="#D3654E"/>
<path d="M383.073 222.473C381.779 222.329 380.63 223.335 380.342 224.054C380.198 224.916 380.773 225.635 381.348 225.922C382.21 226.209 383.504 225.491 384.079 224.772C384.797 223.623 384.222 222.76 383.073 222.473Z" fill="#EBAEA2"/>
<path d="M381.779 303.96C381.635 303.96 381.348 303.96 381.204 303.96C381.06 303.96 380.773 303.672 381.06 303.672C381.923 303.241 382.785 302.666 383.647 302.092C384.222 301.804 384.51 301.804 384.941 301.804C385.659 301.804 386.378 302.235 387.24 302.235C387.528 302.379 388.246 302.523 388.534 302.235C388.821 302.092 389.54 300.942 389.54 301.517C389.54 301.804 390.115 301.804 390.402 301.948C391.408 302.81 390.258 304.391 389.109 304.966C387.959 305.397 387.384 304.678 386.234 304.822C386.091 304.822 385.947 304.822 385.803 304.822C385.516 304.966 385.228 305.253 385.085 305.541C384.941 305.828 384.653 306.116 384.222 305.972C383.935 305.972 384.797 304.678 384.797 304.535C384.51 304.535 384.222 304.822 384.079 304.966C383.647 305.253 383.36 305.397 382.929 305.684C382.785 305.684 382.641 305.828 382.498 305.684C382.354 305.684 382.21 305.397 382.354 305.253C382.21 305.253 382.21 305.253 382.066 305.253C381.923 305.253 381.779 305.11 381.923 304.966C382.21 304.535 382.641 303.816 383.073 303.529C382.641 303.672 382.066 303.96 381.779 303.96Z" fill="#EBAEA2"/>
<path d="M370.569 284.414C354.042 291.744 337.658 299.217 321.131 306.547C315.382 309.134 311.358 312.727 306.759 316.607C306.759 316.607 306.759 316.463 306.615 316.463C306.04 316.894 305.609 317.325 305.035 317.757L304.747 318.188L263.5 355.41C265.8 355.554 265.8 355.41 268.099 355.985L311.214 326.667L313.226 325.23L321.706 319.481C329.61 317.182 337.658 314.882 345.562 312.439C356.629 309.277 371.719 307.696 379.623 298.642C381.204 296.774 382.785 294.906 383.36 292.463C384.653 285.564 375.743 281.971 370.569 284.414Z" fill="#EBAEA2"/>
<path d="M263.069 351.961L267.812 350.667L273.704 352.105L273.848 354.835C273.848 355.554 273.417 356.129 272.698 356.129C269.968 355.841 267.381 355.698 264.938 355.41C262.638 354.979 260.482 354.26 258.183 353.254C257.321 352.967 257.608 351.386 258.614 351.53L263.069 351.961Z" fill="#FF5D48"/>
<path d="M266.087 351.099L266.806 350.955C266.806 351.242 267.237 352.679 267.237 352.967C267.237 353.398 266.662 353.398 266.519 353.111C266.519 352.967 266.375 352.536 266.231 352.105C266.375 351.817 266.231 351.386 266.087 351.099Z" fill="#FAFBFD"/>
<path d="M264.65 351.386L265.369 351.242C265.369 351.53 265.8 352.967 265.8 353.254C265.8 353.685 265.225 353.685 265.082 353.398C265.082 353.254 264.938 352.823 264.794 352.392C264.938 352.105 264.938 351.817 264.65 351.386Z" fill="#FAFBFD"/>
<path d="M263.5 351.673L264.219 351.53C264.219 351.817 264.65 353.254 264.65 353.542C264.65 353.973 264.075 353.973 263.932 353.685C263.932 353.542 263.788 353.111 263.644 352.679C263.644 352.392 263.5 351.961 263.5 351.673Z" fill="#FAFBFD"/>
<path d="M370.569 284.414C365.108 286.858 359.647 289.301 354.329 291.744C361.515 293.756 364.246 301.66 362.521 308.128C369.276 306.116 376.461 303.098 380.629 298.211C382.21 296.343 382.785 294.906 383.36 292.463C384.653 285.564 375.743 281.971 370.569 284.414Z" fill="#5693E3"/>
<path d="M263.213 354.404L267.381 351.961L273.561 351.817L274.279 354.404C274.567 355.123 274.136 355.841 273.417 355.985C270.687 356.273 268.243 356.847 265.656 357.135C263.213 357.422 261.058 357.135 258.614 356.704C257.608 356.56 257.608 355.123 258.614 354.835L263.213 354.404Z" fill="#FF5D48"/>
<path d="M266.088 352.823L266.663 352.392C266.806 352.68 267.525 353.973 267.669 354.261C267.812 354.692 267.238 354.835 267.094 354.692C267.094 354.548 266.806 354.261 266.663 353.829C266.375 353.542 266.088 353.111 266.088 352.823Z" fill="#FAFBFD"/>
<path d="M264.794 353.398L265.369 352.967C265.513 353.255 266.232 354.548 266.375 354.835C266.519 355.267 265.944 355.41 265.8 355.267C265.8 355.123 265.513 354.835 265.369 354.404C265.082 354.117 264.938 353.829 264.794 353.398Z" fill="#FAFBFD"/>
<path d="M263.645 354.117L264.219 353.686C264.363 353.973 265.082 355.267 265.225 355.554C265.369 355.985 264.794 356.129 264.651 355.985C264.651 355.841 264.363 355.554 264.219 355.123C263.932 354.836 263.645 354.404 263.645 354.117Z" fill="#FAFBFD"/>
</svg>
