<svg width="24" height="24" viewBox="0 0 24 24" fill="none" xmlns="http://www.w3.org/2000/svg">
<path d="M2.25 2.8501V21.1501L6.375 15.7501H21.75V2.8501H2.25ZM20.25 14.2501H5.625L3.75 16.7251V4.3501H20.25V14.2501Z" fill="black"/>
<path d="M12.525 11.5498H11.325V12.7498H12.525V11.5498Z" fill="black"/>
<path d="M10.125 7.5752H11.175V7.5002C11.175 7.2752 11.25 7.1252 11.4 6.9752C11.55 6.8252 11.775 6.7502 12 6.7502C12.225 6.7502 12.45 6.8252 12.6 6.9752C12.75 7.1252 12.825 7.4252 12.825 7.6502C12.825 7.8752 12.75 8.1002 12.675 8.2502C12.525 8.4752 12.3 8.7002 12.075 9.0752C11.85 9.3002 11.625 9.5252 11.475 9.8252C11.4 10.1252 11.325 10.5002 11.325 10.8002V10.9502H12.525V10.8002C12.525 10.5752 12.525 10.4252 12.6 10.2002C12.675 10.0502 12.75 9.9002 12.9 9.8252C13.2 9.5252 13.5 9.1502 13.8 8.7752C14.025 8.4002 14.175 8.0252 14.175 7.6502C14.175 7.1252 14.025 6.6002 13.65 6.3002C13.05 5.8502 12.525 5.7002 12 5.7002C11.475 5.7002 10.95 5.8502 10.575 6.1502C10.2 6.4502 9.97501 6.9752 10.05 7.4252L10.125 7.5752Z" fill="black"/>
</svg>
