<svg width="24" height="24" viewBox="0 0 24 24" fill="none" xmlns="http://www.w3.org/2000/svg">
<path d="M5.37838 10.6C4.61568 10.6 4 11.2253 4 12C4 12.7747 4.61568 13.4 5.37838 13.4C6.14108 13.4 6.75676 12.7747 6.75676 12C6.75676 11.2253 6.14108 10.6 5.37838 10.6ZM5.37838 5C4.61568 5 4 5.62533 4 6.4C4 7.17467 4.61568 7.8 5.37838 7.8C6.14108 7.8 6.75676 7.17467 6.75676 6.4C6.75676 5.62533 6.14108 5 5.37838 5ZM5.37838 16.2C4.61568 16.2 4 16.8347 4 17.6C4 18.3653 4.62486 19 5.37838 19C6.13189 19 6.75676 18.3653 6.75676 17.6C6.75676 16.8347 6.14108 16.2 5.37838 16.2ZM8.13514 18.5333H21V16.6667H8.13514V18.5333ZM8.13514 12.9333H21V11.0667H8.13514V12.9333ZM8.13514 5.46667V7.33333H21V5.46667H8.13514Z" fill="black"/>
</svg>
