<svg width="53" height="52" viewBox="0 0 53 52" fill="none" xmlns="http://www.w3.org/2000/svg">
<g clip-path="url(#clip0_3695_4652)">
<path d="M40.1843 12.3156L27.8686 10.9473L12.8159 12.3156L11.4473 26L12.8156 39.6843L26.5 41.3948L40.1843 39.6843L41.5527 25.6581L40.1843 12.3156Z" fill="white"/>
<path d="M18.4298 33.5465C17.407 32.8555 16.6988 31.8464 16.3121 30.5121L18.6865 29.5337C18.902 30.3548 19.2782 30.991 19.8154 31.4426C20.3492 31.8942 20.9992 32.1165 21.7586 32.1165C22.5352 32.1165 23.2024 31.8805 23.7598 31.4083C24.3173 30.9361 24.5981 30.334 24.5981 29.6055C24.5981 28.8598 24.3038 28.2506 23.7154 27.7787C23.127 27.3068 22.3881 27.0705 21.5054 27.0705H20.1336V24.7203H21.365C22.1244 24.7203 22.7643 24.5152 23.2843 24.1046C23.8043 23.6941 24.0643 23.133 24.0643 22.418C24.0643 21.7818 23.8316 21.2753 23.3665 20.8957C22.9013 20.5161 22.3127 20.3245 21.5977 20.3245C20.8998 20.3245 20.3455 20.5094 19.935 20.8822C19.5244 21.2551 19.2267 21.7134 19.0388 22.254L16.6886 21.2756C16.9998 20.3929 17.5713 19.6129 18.4093 18.939C19.2475 18.2651 20.3182 17.9263 21.6182 17.9263C22.5794 17.9263 23.445 18.1111 24.2115 18.484C24.9777 18.8568 25.5798 19.3734 26.0143 20.0302C26.4488 20.6903 26.6643 21.4295 26.6643 22.2503C26.6643 23.0886 26.4625 23.7965 26.0588 24.3782C25.655 24.9598 25.1589 25.4044 24.5705 25.7159V25.856C25.3471 26.181 25.98 26.6771 26.4794 27.3442C26.9755 28.0114 27.2251 28.8086 27.2251 29.7391C27.2251 30.6697 26.989 31.5009 26.5169 32.2296C26.0447 32.9584 25.3913 33.533 24.5635 33.9503C23.7323 34.3676 22.7984 34.5798 21.7617 34.5798C20.5611 34.5832 19.4527 34.2376 18.4298 33.5465Z" fill="#1A73E8"/>
<path d="M33 21.7649L30.4068 23.6499L29.1034 21.6726L33.78 18.2993H35.5727V34.2105H33V21.7649Z" fill="#1A73E8"/>
<path d="M40.1843 52.0002L52.5 39.6845L46.3421 36.9478L40.1843 39.6845L37.4475 45.8424L40.1843 52.0002Z" fill="#EA4335"/>
<path d="M10.079 45.8419L12.8157 51.9998H40.1841V39.6841H12.8157L10.079 45.8419Z" fill="#34A853"/>
<path d="M4.60514 0C2.33716 0 0.5 1.83716 0.5 4.10514V39.6841L6.65784 42.4208L12.8157 39.6841V12.3157H40.1841L42.9208 6.15784L40.1843 0H4.60514Z" fill="#4285F4"/>
<path d="M0.5 39.6841V47.8946C0.5 50.1629 2.33716 51.9998 4.60514 51.9998H12.8157V39.6841H0.5Z" fill="#188038"/>
<path d="M40.1843 12.3159V39.6842H52.5V12.3159L46.3422 9.5791L40.1843 12.3159Z" fill="#FBBC04"/>
<path d="M52.5 12.3157V4.10514C52.5 1.8369 50.6628 0 48.3949 0H40.1843V12.3157H52.5Z" fill="#1967D2"/>
</g>
<defs>
<clipPath id="clip0_3695_4652">
<rect width="52" height="52" fill="white" transform="translate(0.5)"/>
</clipPath>
</defs>
</svg>
