<svg width="24" height="24" viewBox="0 0 24 24" fill="none" xmlns="http://www.w3.org/2000/svg">
<path d="M7.60542 19.0802C6.05791 18.1868 5.52626 16.2026 6.41971 14.6552L8.50966 11.0352L6.79021 10.0425L4.70026 13.6624C3.2582 16.1602 4.11497 19.3577 6.61269 20.7997C9.11044 22.2418 12.3079 21.385 13.75 18.8873L15.8399 15.2674L14.1204 14.2747L12.0305 17.8946C11.137 19.4421 9.15289 19.9737 7.60542 19.0802ZM10.6526 15.8924L14.8325 8.65258L13.0226 7.60761L8.84266 14.8474L10.6526 15.8924ZM9.92513 4.61269L7.83518 8.2326L9.55468 9.22535L11.6446 5.60542C12.5381 4.05792 14.5222 3.52626 16.0697 4.41971C17.6172 5.31316 18.1488 7.29733 17.2554 8.84483L15.1654 12.4648L16.8849 13.4575L18.9749 9.83757C20.4169 7.33984 19.5602 4.14232 17.0624 2.70026C14.5647 1.2582 11.3672 2.11497 9.92513 4.61269Z" fill="black"/>
</svg>
