<svg width="12" height="12" viewBox="0 0 12 12" fill="none" xmlns="http://www.w3.org/2000/svg">
<path fill-rule="evenodd" clip-rule="evenodd" d="M0.398106 2.03903C0.405178 2.02679 0.412972 2.0149 0.421439 2.00339C0.522652 1.84699 0.674734 1.7082 0.872117 1.60426L1.90156 1.06218C2.51952 0.736778 3.35373 0.868299 3.76538 1.35377L5.33831 3.20879C5.74995 3.69427 5.58494 4.35196 4.96698 4.67736L3.54226 5.42759C3.69709 5.9128 4.007 6.46585 4.46969 7.01152C4.93359 7.55862 5.46495 7.99673 5.97575 8.29516L7.40043 7.54496C8.01839 7.21955 8.8526 7.35108 9.26425 7.83655L10.8393 9.69408C11.251 10.1796 11.0859 10.8372 10.468 11.1627L9.43854 11.7047C9.17552 11.8432 8.87182 11.8991 8.57936 11.8797C7.56268 11.8658 6.43261 11.4692 5.35579 10.8401C4.26005 10.2 3.1687 9.29019 2.23454 8.18849C1.27941 7.06206 0.622181 5.89256 0.298179 4.83076C-0.022123 3.78108 -0.0321395 2.7834 0.398106 2.03903ZM8.86322 11.0262C8.8012 11.0589 8.73086 11.0712 8.66205 11.0656C8.64613 11.0643 8.63014 11.0636 8.61412 11.0635C7.90106 11.0576 6.97422 10.7681 5.97442 10.1841C4.98576 9.6065 3.97385 8.76828 3.09709 7.73429C2.20046 6.67685 1.59814 5.59505 1.30632 4.63873C1.01537 3.68523 1.04757 2.90704 1.32852 2.39944C1.33267 2.39329 1.33663 2.38703 1.3404 2.38067C1.36305 2.34243 1.39857 2.30849 1.44743 2.28276L2.47688 1.74068C2.61698 1.6669 2.80793 1.69606 2.90282 1.80798L4.47575 3.663C4.57064 3.77491 4.53176 3.92509 4.39166 3.99887L2.71662 4.8809C2.52238 4.96339 2.41376 5.13509 2.45118 5.30895C2.59616 5.9826 2.99485 6.74363 3.60713 7.46572C4.22043 8.18901 4.96155 8.77124 5.69711 9.13446C5.8829 9.2262 6.11975 9.21505 6.29003 9.11112L7.97575 8.22346C8.11585 8.14968 8.3068 8.17884 8.4017 8.29075L9.97675 10.1483C10.0716 10.2602 10.0328 10.4104 9.89266 10.4842L8.86322 11.0262Z" fill="#F9FBFC"/>
</svg>
