<svg width="14" height="14" viewBox="0 0 14 14" fill="none" xmlns="http://www.w3.org/2000/svg">
<path fill-rule="evenodd" clip-rule="evenodd" d="M0.423095 1.47077C0.432097 1.45519 0.442016 1.44006 0.452792 1.42541C0.581609 1.22635 0.775168 1.04971 1.02638 0.917431L2.33658 0.22751C3.12308 -0.186639 4.1848 -0.019249 4.70872 0.598628L6.71062 2.95956C7.23454 3.57744 7.02452 4.4145 6.23802 4.82865L4.42474 5.78348C4.6218 6.40103 5.01624 7.10491 5.60511 7.79939C6.19553 8.49571 6.8718 9.0533 7.52192 9.43312L9.33515 8.47832C10.1216 8.06417 11.1834 8.23156 11.7073 8.84943L13.7119 11.2136C14.2358 11.8314 14.0258 12.6685 13.2393 13.0827L11.9291 13.7726C11.5943 13.9489 11.2078 14.0199 10.8356 13.9953C9.54165 13.9775 8.10338 13.4728 6.73288 12.6721C5.33829 11.8574 3.94931 10.6995 2.76037 9.29736C1.54475 7.86372 0.708282 6.37527 0.295915 5.02388C-0.111741 3.68793 -0.12449 2.41816 0.423095 1.47077ZM11.1969 12.909C11.1179 12.9506 11.0284 12.9663 10.9408 12.9592C10.9206 12.9575 10.9002 12.9566 10.8798 12.9565C9.97231 12.949 8.7927 12.5805 7.52022 11.8372C6.26193 11.1021 4.97404 10.0353 3.85817 8.71928C2.717 7.37345 1.95041 5.99661 1.57901 4.77948C1.2087 3.56593 1.24968 2.57552 1.60726 1.92948C1.61254 1.92165 1.61758 1.91369 1.62238 1.90558C1.65121 1.85692 1.69642 1.81372 1.75861 1.78097L3.06881 1.09105C3.24712 0.997158 3.49014 1.03427 3.61092 1.1767L5.61282 3.53764C5.7336 3.68007 5.68411 3.87121 5.5058 3.96511L3.37393 5.0877C3.12671 5.19269 2.98848 5.41121 3.0361 5.63249C3.22062 6.48987 3.72804 7.45844 4.50731 8.37747C5.28787 9.29801 6.23111 10.039 7.16728 10.5013C7.40375 10.6181 7.70519 10.6039 7.9219 10.4716L10.0674 9.34186C10.2457 9.24796 10.4887 9.28508 10.6095 9.42751L12.6141 11.7916C12.7349 11.9341 12.6854 12.1252 12.5071 12.2191L11.1969 12.909Z" fill="#1F2529"/>
</svg>
