<svg width="24" height="24" viewBox="0 0 24 24" fill="none" xmlns="http://www.w3.org/2000/svg">
<path fill-rule="evenodd" clip-rule="evenodd" d="M3.02617 7.68366C4.72456 4.1821 8.25611 1.97331 12.1131 2.00024C13.4457 2.00906 14.7646 2.2731 16 2.7784V4.49191C14.7993 3.86486 13.4644 3.54632 12.1131 3.56441C9.85357 3.55188 7.68196 4.44907 6.07764 6.05795C4.47331 7.66684 3.56817 9.85514 3.56201 12.1398C3.55053 13.9077 4.09498 15.6335 5.11676 17.0682V15.2839H6.67151V20H2.00726V18.428H4.14504C1.76262 15.3609 1.32778 11.1852 3.02617 7.68366ZM17.3162 8.73343V4.02355V4H21.9743V5.56996H19.8393C22.233 8.63277 22.6757 12.8128 20.9777 16.3187C19.2797 19.8245 15.7423 22.0338 11.8817 21.9996C10.5504 21.9883 9.23323 21.7219 8 21.2146V19.5034C9.19911 20.1296 10.5323 20.4477 11.8817 20.4296C14.1505 20.4423 16.3299 19.5366 17.9341 17.9145C19.5383 16.2924 20.4341 14.0888 20.4216 11.7949C20.4248 10.0427 19.8815 8.33415 18.8689 6.91228V8.73343H17.3162Z" fill="black"/>
</svg>
