 <svg width="64" height="64" viewBox="0 0 64 64" fill="none" xmlns="http://www.w3.org/2000/svg">
      <path fill-rule="evenodd" clip-rule="evenodd"
        d="M5.33301 53.3333V10.6667H58.6663V53.3333H5.33301ZM9.43555 49.4544H54.5638V14.5453H9.43555V49.4544ZM42.6663 23.2439C42.6498 26.0048 40.2673 28.2349 37.3338 28.2353C35.9033 28.2355 34.5327 27.6948 33.5298 26.7348C32.5269 25.7747 31.9759 24.4757 32.0005 23.1295C32.0508 20.369 34.4605 18.1649 37.3938 18.1964C40.3271 18.2279 42.6828 20.483 42.6663 23.2439ZM39.0891 22.5314C38.795 21.8632 38.1023 21.4276 37.3339 21.4276V21.3414C36.8137 21.3408 36.3161 21.541 35.957 21.8952C35.598 22.2494 35.4089 22.7267 35.434 23.2157C35.434 23.9389 35.8969 24.5909 36.6068 24.8677C37.3168 25.1444 38.1339 24.9915 38.6773 24.4801C39.2206 23.9687 39.3832 23.1996 39.0891 22.5314ZM38.29 45.8039L21.1157 28.5797L13.5839 35.2801L10.6663 32.3846C10.8258 32.2478 11.073 32.0369 11.3929 31.7642C12.9819 30.409 16.3636 27.5248 19.688 24.5892L21.2399 23.2157L34.731 36.7464L43.0078 28.524L43.1319 28.6539L53.333 38.7695L50.6844 41.5164L50.5189 41.6464L43.3388 34.5191L43.0078 34.1664L37.6693 39.5304L41.0834 43.0384L38.6004 45.5626L38.29 45.8039Z"
        fill="#CED9E0" />
</svg>