<svg width="25" height="24" viewBox="0 0 25 24" fill="none" xmlns="http://www.w3.org/2000/svg">
<rect width="24" height="24" transform="translate(0.5)" fill="#C4DFF5"/>
<path fill-rule="evenodd" clip-rule="evenodd" d="M6.02894 6.08718C6.7788 3.65276 8.99498 1.99715 11.5 2C14.005 1.99715 16.2212 3.65276 16.9711 6.08718C17.7209 8.52161 16.8304 11.1699 14.7727 12.625C15.6324 12.9668 16.4189 13.4335 17.1154 14H13.6424C13.3793 13.9187 13.1094 13.8517 12.8336 13.8H10.1745C6.68097 14.4511 4.1415 17.5493 4.13637 21.1667H2.5C2.49897 17.3896 4.77271 13.9985 8.22727 12.625C6.16957 11.1699 5.27909 8.52161 6.02894 6.08718ZM15.5909 7.83334C15.5909 5.53215 13.7593 3.66667 11.5 3.66667C9.24066 3.66667 7.40909 5.53215 7.40909 7.83334C7.40909 10.1345 9.24066 12 11.5 12C13.7593 12 15.5909 10.1345 15.5909 7.83334ZM10.5 15.9999V20.9091V21.7273H22.5V20.9135L22.5 20.9091L22.5 20.9047V16.0043L22.5 15.9999L22.5 15.9956V15.1819H21.6968L21.6818 15.1818L21.6669 15.1819H11.3331L11.3182 15.1818L11.3033 15.1819H10.5V15.9999ZM20.8906 20.7C20.9678 20.4071 21.2033 20.1785 21.5 20.1112V16.7978C21.2002 16.7298 20.963 16.4972 20.8883 16.2H12.1117C12.037 16.4972 11.7998 16.7298 11.5 16.7978V20.1112C11.7967 20.1785 12.0322 20.4071 12.1094 20.7H20.8906ZM16.5 17.6363C16.9519 17.6363 17.3182 18.0026 17.3182 18.4545C17.3182 18.9063 16.9519 19.2726 16.5 19.2726C16.0481 19.2726 15.6818 18.9063 15.6818 18.4545C15.6818 18.0026 16.0481 17.6363 16.5 17.6363ZM16.5 16.8181C17.4037 16.8181 18.1364 17.5507 18.1364 18.4545C18.1364 19.3582 17.4037 20.0908 16.5 20.0908C15.5963 20.0908 14.8636 19.3582 14.8636 18.4545C14.8636 17.5507 15.5963 16.8181 16.5 16.8181ZM13 17.9H14V18.9H13V17.9ZM20 17.9H19V18.9H20V17.9Z" fill="#3988E3"/>
</svg>
